%TF.GenerationSoftware,KiCad,Pcbnew,9.0.2-9.0.2-0~ubuntu24.04.1*%
%TF.CreationDate,2025-06-13T11:12:49-07:00*%
%TF.ProjectId,compact_photodiode_v2,636f6d70-6163-4745-9f70-686f746f6469,rev?*%
%TF.SameCoordinates,Original*%
%TF.FileFunction,Legend,Top*%
%TF.FilePolarity,Positive*%
%FSLAX46Y46*%
G04 Gerber Fmt 4.6, Leading zero omitted, Abs format (unit mm)*
G04 Created by KiCad (PCBNEW 9.0.2-9.0.2-0~ubuntu24.04.1) date 2025-06-13 11:12:49*
%MOMM*%
%LPD*%
G01*
G04 APERTURE LIST*
%ADD10C,0.150000*%
%ADD11C,0.100000*%
%ADD12C,0.152400*%
%ADD13C,0.120000*%
G04 APERTURE END LIST*
D10*
X155241541Y-125369819D02*
X155479636Y-126369819D01*
X155479636Y-126369819D02*
X155670112Y-125655533D01*
X155670112Y-125655533D02*
X155860588Y-126369819D01*
X155860588Y-126369819D02*
X156098684Y-125369819D01*
X156908207Y-126369819D02*
X156908207Y-125846009D01*
X156908207Y-125846009D02*
X156860588Y-125750771D01*
X156860588Y-125750771D02*
X156765350Y-125703152D01*
X156765350Y-125703152D02*
X156574874Y-125703152D01*
X156574874Y-125703152D02*
X156479636Y-125750771D01*
X156908207Y-126322200D02*
X156812969Y-126369819D01*
X156812969Y-126369819D02*
X156574874Y-126369819D01*
X156574874Y-126369819D02*
X156479636Y-126322200D01*
X156479636Y-126322200D02*
X156432017Y-126226961D01*
X156432017Y-126226961D02*
X156432017Y-126131723D01*
X156432017Y-126131723D02*
X156479636Y-126036485D01*
X156479636Y-126036485D02*
X156574874Y-125988866D01*
X156574874Y-125988866D02*
X156812969Y-125988866D01*
X156812969Y-125988866D02*
X156908207Y-125941247D01*
X157289160Y-125703152D02*
X157527255Y-126369819D01*
X157765350Y-125703152D02*
X157527255Y-126369819D01*
X157527255Y-126369819D02*
X157432017Y-126607914D01*
X157432017Y-126607914D02*
X157384398Y-126655533D01*
X157384398Y-126655533D02*
X157289160Y-126703152D01*
X158051065Y-125369819D02*
X158289160Y-126369819D01*
X158289160Y-126369819D02*
X158479636Y-125655533D01*
X158479636Y-125655533D02*
X158670112Y-126369819D01*
X158670112Y-126369819D02*
X158908208Y-125369819D01*
X159717731Y-126369819D02*
X159717731Y-125846009D01*
X159717731Y-125846009D02*
X159670112Y-125750771D01*
X159670112Y-125750771D02*
X159574874Y-125703152D01*
X159574874Y-125703152D02*
X159384398Y-125703152D01*
X159384398Y-125703152D02*
X159289160Y-125750771D01*
X159717731Y-126322200D02*
X159622493Y-126369819D01*
X159622493Y-126369819D02*
X159384398Y-126369819D01*
X159384398Y-126369819D02*
X159289160Y-126322200D01*
X159289160Y-126322200D02*
X159241541Y-126226961D01*
X159241541Y-126226961D02*
X159241541Y-126131723D01*
X159241541Y-126131723D02*
X159289160Y-126036485D01*
X159289160Y-126036485D02*
X159384398Y-125988866D01*
X159384398Y-125988866D02*
X159622493Y-125988866D01*
X159622493Y-125988866D02*
X159717731Y-125941247D01*
X160098684Y-125703152D02*
X160336779Y-126369819D01*
X160574874Y-125703152D02*
X160336779Y-126369819D01*
X160336779Y-126369819D02*
X160241541Y-126607914D01*
X160241541Y-126607914D02*
X160193922Y-126655533D01*
X160193922Y-126655533D02*
X160098684Y-126703152D01*
X160860589Y-125369819D02*
X161098684Y-126369819D01*
X161098684Y-126369819D02*
X161289160Y-125655533D01*
X161289160Y-125655533D02*
X161479636Y-126369819D01*
X161479636Y-126369819D02*
X161717732Y-125369819D01*
X162527255Y-126369819D02*
X162527255Y-125846009D01*
X162527255Y-125846009D02*
X162479636Y-125750771D01*
X162479636Y-125750771D02*
X162384398Y-125703152D01*
X162384398Y-125703152D02*
X162193922Y-125703152D01*
X162193922Y-125703152D02*
X162098684Y-125750771D01*
X162527255Y-126322200D02*
X162432017Y-126369819D01*
X162432017Y-126369819D02*
X162193922Y-126369819D01*
X162193922Y-126369819D02*
X162098684Y-126322200D01*
X162098684Y-126322200D02*
X162051065Y-126226961D01*
X162051065Y-126226961D02*
X162051065Y-126131723D01*
X162051065Y-126131723D02*
X162098684Y-126036485D01*
X162098684Y-126036485D02*
X162193922Y-125988866D01*
X162193922Y-125988866D02*
X162432017Y-125988866D01*
X162432017Y-125988866D02*
X162527255Y-125941247D01*
X162908208Y-125703152D02*
X163146303Y-126369819D01*
X163384398Y-125703152D02*
X163146303Y-126369819D01*
X163146303Y-126369819D02*
X163051065Y-126607914D01*
X163051065Y-126607914D02*
X163003446Y-126655533D01*
X163003446Y-126655533D02*
X162908208Y-126703152D01*
X149118333Y-111954819D02*
X148785000Y-111478628D01*
X148546905Y-111954819D02*
X148546905Y-110954819D01*
X148546905Y-110954819D02*
X148927857Y-110954819D01*
X148927857Y-110954819D02*
X149023095Y-111002438D01*
X149023095Y-111002438D02*
X149070714Y-111050057D01*
X149070714Y-111050057D02*
X149118333Y-111145295D01*
X149118333Y-111145295D02*
X149118333Y-111288152D01*
X149118333Y-111288152D02*
X149070714Y-111383390D01*
X149070714Y-111383390D02*
X149023095Y-111431009D01*
X149023095Y-111431009D02*
X148927857Y-111478628D01*
X148927857Y-111478628D02*
X148546905Y-111478628D01*
X149499286Y-111050057D02*
X149546905Y-111002438D01*
X149546905Y-111002438D02*
X149642143Y-110954819D01*
X149642143Y-110954819D02*
X149880238Y-110954819D01*
X149880238Y-110954819D02*
X149975476Y-111002438D01*
X149975476Y-111002438D02*
X150023095Y-111050057D01*
X150023095Y-111050057D02*
X150070714Y-111145295D01*
X150070714Y-111145295D02*
X150070714Y-111240533D01*
X150070714Y-111240533D02*
X150023095Y-111383390D01*
X150023095Y-111383390D02*
X149451667Y-111954819D01*
X149451667Y-111954819D02*
X150070714Y-111954819D01*
D11*
X152457419Y-124261904D02*
X153266942Y-124261904D01*
X153266942Y-124261904D02*
X153362180Y-124214285D01*
X153362180Y-124214285D02*
X153409800Y-124166666D01*
X153409800Y-124166666D02*
X153457419Y-124071428D01*
X153457419Y-124071428D02*
X153457419Y-123880952D01*
X153457419Y-123880952D02*
X153409800Y-123785714D01*
X153409800Y-123785714D02*
X153362180Y-123738095D01*
X153362180Y-123738095D02*
X153266942Y-123690476D01*
X153266942Y-123690476D02*
X152457419Y-123690476D01*
X152552657Y-123261904D02*
X152505038Y-123214285D01*
X152505038Y-123214285D02*
X152457419Y-123119047D01*
X152457419Y-123119047D02*
X152457419Y-122880952D01*
X152457419Y-122880952D02*
X152505038Y-122785714D01*
X152505038Y-122785714D02*
X152552657Y-122738095D01*
X152552657Y-122738095D02*
X152647895Y-122690476D01*
X152647895Y-122690476D02*
X152743133Y-122690476D01*
X152743133Y-122690476D02*
X152885990Y-122738095D01*
X152885990Y-122738095D02*
X153457419Y-123309523D01*
X153457419Y-123309523D02*
X153457419Y-122690476D01*
D10*
X142931009Y-119785714D02*
X142978628Y-119642857D01*
X142978628Y-119642857D02*
X143026247Y-119595238D01*
X143026247Y-119595238D02*
X143121485Y-119547619D01*
X143121485Y-119547619D02*
X143264342Y-119547619D01*
X143264342Y-119547619D02*
X143359580Y-119595238D01*
X143359580Y-119595238D02*
X143407200Y-119642857D01*
X143407200Y-119642857D02*
X143454819Y-119738095D01*
X143454819Y-119738095D02*
X143454819Y-120119047D01*
X143454819Y-120119047D02*
X142454819Y-120119047D01*
X142454819Y-120119047D02*
X142454819Y-119785714D01*
X142454819Y-119785714D02*
X142502438Y-119690476D01*
X142502438Y-119690476D02*
X142550057Y-119642857D01*
X142550057Y-119642857D02*
X142645295Y-119595238D01*
X142645295Y-119595238D02*
X142740533Y-119595238D01*
X142740533Y-119595238D02*
X142835771Y-119642857D01*
X142835771Y-119642857D02*
X142883390Y-119690476D01*
X142883390Y-119690476D02*
X142931009Y-119785714D01*
X142931009Y-119785714D02*
X142931009Y-120119047D01*
X142454819Y-119261904D02*
X142454819Y-118690476D01*
X143454819Y-118976190D02*
X142454819Y-118976190D01*
X143454819Y-117833333D02*
X143454819Y-118404761D01*
X143454819Y-118119047D02*
X142454819Y-118119047D01*
X142454819Y-118119047D02*
X142597676Y-118214285D01*
X142597676Y-118214285D02*
X142692914Y-118309523D01*
X142692914Y-118309523D02*
X142740533Y-118404761D01*
D12*
%TO.C,R2*%
X146008400Y-112935100D02*
X152561600Y-112935100D01*
X152561600Y-112935100D02*
X152561600Y-110064900D01*
X152561600Y-110064900D02*
X146008400Y-110064900D01*
X146008400Y-110064900D02*
X146008400Y-112935100D01*
D11*
%TO.C,U2*%
X144560000Y-123740000D02*
X144560000Y-121740000D01*
X147060000Y-119240000D02*
X149060000Y-119240000D01*
X147060000Y-126240000D02*
X149060000Y-126240000D01*
X151560000Y-123740000D02*
X151560000Y-121740000D01*
D13*
%TO.C,BT1*%
X132610000Y-110760000D02*
X134350000Y-110760000D01*
X132610000Y-112500000D02*
X132610000Y-110760000D01*
X132850000Y-111000000D02*
X135650000Y-111000000D01*
X132850000Y-125600000D02*
X132850000Y-111000000D01*
X139250000Y-111000000D02*
X142050000Y-111000000D01*
X142050000Y-111000000D02*
X142050000Y-113000000D01*
X142050000Y-116600000D02*
X142050000Y-125600000D01*
X142050000Y-125600000D02*
X132850000Y-125600000D01*
%TD*%
M02*
