%TF.GenerationSoftware,KiCad,Pcbnew,9.0.0*%
%TF.CreationDate,2025-04-13T17:51:54-07:00*%
%TF.ProjectId,compact_photodiode_v2,636f6d70-6163-4745-9f70-686f746f6469,rev?*%
%TF.SameCoordinates,Original*%
%TF.FileFunction,Legend,Bot*%
%TF.FilePolarity,Positive*%
%FSLAX46Y46*%
G04 Gerber Fmt 4.6, Leading zero omitted, Abs format (unit mm)*
G04 Created by KiCad (PCBNEW 9.0.0) date 2025-04-13 17:51:54*
%MOMM*%
%LPD*%
G01*
G04 APERTURE LIST*
%ADD10C,0.150000*%
%ADD11C,0.100000*%
G04 APERTURE END LIST*
D10*
X160201904Y-123574819D02*
X160201904Y-124384342D01*
X160201904Y-124384342D02*
X160154285Y-124479580D01*
X160154285Y-124479580D02*
X160106666Y-124527200D01*
X160106666Y-124527200D02*
X160011428Y-124574819D01*
X160011428Y-124574819D02*
X159820952Y-124574819D01*
X159820952Y-124574819D02*
X159725714Y-124527200D01*
X159725714Y-124527200D02*
X159678095Y-124479580D01*
X159678095Y-124479580D02*
X159630476Y-124384342D01*
X159630476Y-124384342D02*
X159630476Y-123574819D01*
X158630476Y-124574819D02*
X159201904Y-124574819D01*
X158916190Y-124574819D02*
X158916190Y-123574819D01*
X158916190Y-123574819D02*
X159011428Y-123717676D01*
X159011428Y-123717676D02*
X159106666Y-123812914D01*
X159106666Y-123812914D02*
X159201904Y-123860533D01*
D11*
%TO.C,U1*%
X155790000Y-112800000D02*
X156090000Y-112800000D01*
X155790000Y-113100000D02*
X155790000Y-112800000D01*
X155790000Y-122500000D02*
X155790000Y-122800000D01*
X155790000Y-122800000D02*
X156090000Y-122800000D01*
X162590000Y-112800000D02*
X162290000Y-112800000D01*
X162590000Y-113100000D02*
X162590000Y-112800000D01*
X162590000Y-122500000D02*
X162590000Y-122800000D01*
X162590000Y-122800000D02*
X162290000Y-122800000D01*
%TD*%
M02*
