%TF.GenerationSoftware,KiCad,Pcbnew,9.0.6-9.0.6~ubuntu24.04.1*%
%TF.CreationDate,2026-01-10T16:19:20-08:00*%
%TF.ProjectId,MCU Project,4d435520-5072-46f6-9a65-63742e6b6963,rev?*%
%TF.SameCoordinates,Original*%
%TF.FileFunction,Legend,Top*%
%TF.FilePolarity,Positive*%
%FSLAX46Y46*%
G04 Gerber Fmt 4.6, Leading zero omitted, Abs format (unit mm)*
G04 Created by KiCad (PCBNEW 9.0.6-9.0.6~ubuntu24.04.1) date 2026-01-10 16:19:20*
%MOMM*%
%LPD*%
G01*
G04 APERTURE LIST*
%ADD10C,0.100000*%
%ADD11C,0.200000*%
%ADD12C,0.150000*%
%ADD13C,0.152400*%
%ADD14C,0.250000*%
%ADD15C,0.060000*%
%ADD16C,0.127000*%
%ADD17C,0.120000*%
%ADD18C,1.000000*%
G04 APERTURE END LIST*
D10*
X110163295Y-90006265D02*
X110163295Y-90482455D01*
X109877580Y-89911027D02*
X110877580Y-90244360D01*
X110877580Y-90244360D02*
X109877580Y-90577693D01*
X109877580Y-91053884D02*
X109925200Y-90958646D01*
X109925200Y-90958646D02*
X110020438Y-90911027D01*
X110020438Y-90911027D02*
X110877580Y-90911027D01*
X109877580Y-91577694D02*
X109925200Y-91482456D01*
X109925200Y-91482456D02*
X110020438Y-91434837D01*
X110020438Y-91434837D02*
X110877580Y-91434837D01*
X109877580Y-93291980D02*
X110353771Y-92958647D01*
X109877580Y-92720552D02*
X110877580Y-92720552D01*
X110877580Y-92720552D02*
X110877580Y-93101504D01*
X110877580Y-93101504D02*
X110829961Y-93196742D01*
X110829961Y-93196742D02*
X110782342Y-93244361D01*
X110782342Y-93244361D02*
X110687104Y-93291980D01*
X110687104Y-93291980D02*
X110544247Y-93291980D01*
X110544247Y-93291980D02*
X110449009Y-93244361D01*
X110449009Y-93244361D02*
X110401390Y-93196742D01*
X110401390Y-93196742D02*
X110353771Y-93101504D01*
X110353771Y-93101504D02*
X110353771Y-92720552D01*
X110401390Y-93720552D02*
X110401390Y-94482457D01*
X110115676Y-94482457D02*
X110115676Y-93720552D01*
X110877580Y-94863409D02*
X110877580Y-95482456D01*
X110877580Y-95482456D02*
X110496628Y-95149123D01*
X110496628Y-95149123D02*
X110496628Y-95291980D01*
X110496628Y-95291980D02*
X110449009Y-95387218D01*
X110449009Y-95387218D02*
X110401390Y-95434837D01*
X110401390Y-95434837D02*
X110306152Y-95482456D01*
X110306152Y-95482456D02*
X110068057Y-95482456D01*
X110068057Y-95482456D02*
X109972819Y-95434837D01*
X109972819Y-95434837D02*
X109925200Y-95387218D01*
X109925200Y-95387218D02*
X109877580Y-95291980D01*
X109877580Y-95291980D02*
X109877580Y-95006266D01*
X109877580Y-95006266D02*
X109925200Y-94911028D01*
X109925200Y-94911028D02*
X109972819Y-94863409D01*
X110877580Y-95815790D02*
X110877580Y-96434837D01*
X110877580Y-96434837D02*
X110496628Y-96101504D01*
X110496628Y-96101504D02*
X110496628Y-96244361D01*
X110496628Y-96244361D02*
X110449009Y-96339599D01*
X110449009Y-96339599D02*
X110401390Y-96387218D01*
X110401390Y-96387218D02*
X110306152Y-96434837D01*
X110306152Y-96434837D02*
X110068057Y-96434837D01*
X110068057Y-96434837D02*
X109972819Y-96387218D01*
X109972819Y-96387218D02*
X109925200Y-96339599D01*
X109925200Y-96339599D02*
X109877580Y-96244361D01*
X109877580Y-96244361D02*
X109877580Y-95958647D01*
X109877580Y-95958647D02*
X109925200Y-95863409D01*
X109925200Y-95863409D02*
X109972819Y-95815790D01*
X110877580Y-97053885D02*
X110877580Y-97149123D01*
X110877580Y-97149123D02*
X110829961Y-97244361D01*
X110829961Y-97244361D02*
X110782342Y-97291980D01*
X110782342Y-97291980D02*
X110687104Y-97339599D01*
X110687104Y-97339599D02*
X110496628Y-97387218D01*
X110496628Y-97387218D02*
X110258533Y-97387218D01*
X110258533Y-97387218D02*
X110068057Y-97339599D01*
X110068057Y-97339599D02*
X109972819Y-97291980D01*
X109972819Y-97291980D02*
X109925200Y-97244361D01*
X109925200Y-97244361D02*
X109877580Y-97149123D01*
X109877580Y-97149123D02*
X109877580Y-97053885D01*
X109877580Y-97053885D02*
X109925200Y-96958647D01*
X109925200Y-96958647D02*
X109972819Y-96911028D01*
X109972819Y-96911028D02*
X110068057Y-96863409D01*
X110068057Y-96863409D02*
X110258533Y-96815790D01*
X110258533Y-96815790D02*
X110496628Y-96815790D01*
X110496628Y-96815790D02*
X110687104Y-96863409D01*
X110687104Y-96863409D02*
X110782342Y-96911028D01*
X110782342Y-96911028D02*
X110829961Y-96958647D01*
X110829961Y-96958647D02*
X110877580Y-97053885D01*
X109877580Y-97768171D02*
X109877580Y-98006266D01*
X109877580Y-98006266D02*
X110068057Y-98006266D01*
X110068057Y-98006266D02*
X110115676Y-97911028D01*
X110115676Y-97911028D02*
X110210914Y-97815790D01*
X110210914Y-97815790D02*
X110353771Y-97768171D01*
X110353771Y-97768171D02*
X110591866Y-97768171D01*
X110591866Y-97768171D02*
X110734723Y-97815790D01*
X110734723Y-97815790D02*
X110829961Y-97911028D01*
X110829961Y-97911028D02*
X110877580Y-98053885D01*
X110877580Y-98053885D02*
X110877580Y-98244361D01*
X110877580Y-98244361D02*
X110829961Y-98387218D01*
X110829961Y-98387218D02*
X110734723Y-98482456D01*
X110734723Y-98482456D02*
X110591866Y-98530075D01*
X110591866Y-98530075D02*
X110353771Y-98530075D01*
X110353771Y-98530075D02*
X110210914Y-98482456D01*
X110210914Y-98482456D02*
X110115676Y-98387218D01*
X110115676Y-98387218D02*
X110068057Y-98291980D01*
X110068057Y-98291980D02*
X109877580Y-98291980D01*
X109877580Y-98291980D02*
X109877580Y-98530075D01*
D11*
X104478019Y-83441101D02*
X104430400Y-83393482D01*
X104430400Y-83393482D02*
X104382780Y-83250625D01*
X104382780Y-83250625D02*
X104382780Y-83155387D01*
X104382780Y-83155387D02*
X104430400Y-83012530D01*
X104430400Y-83012530D02*
X104525638Y-82917292D01*
X104525638Y-82917292D02*
X104620876Y-82869673D01*
X104620876Y-82869673D02*
X104811352Y-82822054D01*
X104811352Y-82822054D02*
X104954209Y-82822054D01*
X104954209Y-82822054D02*
X105144685Y-82869673D01*
X105144685Y-82869673D02*
X105239923Y-82917292D01*
X105239923Y-82917292D02*
X105335161Y-83012530D01*
X105335161Y-83012530D02*
X105382780Y-83155387D01*
X105382780Y-83155387D02*
X105382780Y-83250625D01*
X105382780Y-83250625D02*
X105335161Y-83393482D01*
X105335161Y-83393482D02*
X105287542Y-83441101D01*
X104382780Y-83869673D02*
X105382780Y-83869673D01*
X104906590Y-83869673D02*
X104906590Y-84441101D01*
X104382780Y-84441101D02*
X105382780Y-84441101D01*
X105382780Y-84822054D02*
X105382780Y-85441101D01*
X105382780Y-85441101D02*
X105001828Y-85107768D01*
X105001828Y-85107768D02*
X105001828Y-85250625D01*
X105001828Y-85250625D02*
X104954209Y-85345863D01*
X104954209Y-85345863D02*
X104906590Y-85393482D01*
X104906590Y-85393482D02*
X104811352Y-85441101D01*
X104811352Y-85441101D02*
X104573257Y-85441101D01*
X104573257Y-85441101D02*
X104478019Y-85393482D01*
X104478019Y-85393482D02*
X104430400Y-85345863D01*
X104430400Y-85345863D02*
X104382780Y-85250625D01*
X104382780Y-85250625D02*
X104382780Y-84964911D01*
X104382780Y-84964911D02*
X104430400Y-84869673D01*
X104430400Y-84869673D02*
X104478019Y-84822054D01*
X104430400Y-85822054D02*
X104382780Y-85964911D01*
X104382780Y-85964911D02*
X104382780Y-86203006D01*
X104382780Y-86203006D02*
X104430400Y-86298244D01*
X104430400Y-86298244D02*
X104478019Y-86345863D01*
X104478019Y-86345863D02*
X104573257Y-86393482D01*
X104573257Y-86393482D02*
X104668495Y-86393482D01*
X104668495Y-86393482D02*
X104763733Y-86345863D01*
X104763733Y-86345863D02*
X104811352Y-86298244D01*
X104811352Y-86298244D02*
X104858971Y-86203006D01*
X104858971Y-86203006D02*
X104906590Y-86012530D01*
X104906590Y-86012530D02*
X104954209Y-85917292D01*
X104954209Y-85917292D02*
X105001828Y-85869673D01*
X105001828Y-85869673D02*
X105097066Y-85822054D01*
X105097066Y-85822054D02*
X105192304Y-85822054D01*
X105192304Y-85822054D02*
X105287542Y-85869673D01*
X105287542Y-85869673D02*
X105335161Y-85917292D01*
X105335161Y-85917292D02*
X105382780Y-86012530D01*
X105382780Y-86012530D02*
X105382780Y-86250625D01*
X105382780Y-86250625D02*
X105335161Y-86393482D01*
X104763733Y-86822054D02*
X104763733Y-87583959D01*
X104906590Y-88060149D02*
X104906590Y-88393482D01*
X104382780Y-88536339D02*
X104382780Y-88060149D01*
X104382780Y-88060149D02*
X105382780Y-88060149D01*
X105382780Y-88060149D02*
X105382780Y-88536339D01*
X104382780Y-89726816D02*
X105382780Y-89726816D01*
X105001828Y-89726816D02*
X105049447Y-89822054D01*
X105049447Y-89822054D02*
X105049447Y-90012530D01*
X105049447Y-90012530D02*
X105001828Y-90107768D01*
X105001828Y-90107768D02*
X104954209Y-90155387D01*
X104954209Y-90155387D02*
X104858971Y-90203006D01*
X104858971Y-90203006D02*
X104573257Y-90203006D01*
X104573257Y-90203006D02*
X104478019Y-90155387D01*
X104478019Y-90155387D02*
X104430400Y-90107768D01*
X104430400Y-90107768D02*
X104382780Y-90012530D01*
X104382780Y-90012530D02*
X104382780Y-89822054D01*
X104382780Y-89822054D02*
X104430400Y-89726816D01*
X105049447Y-90536340D02*
X104382780Y-90774435D01*
X105049447Y-91012530D02*
X104382780Y-90774435D01*
X104382780Y-90774435D02*
X104144685Y-90679197D01*
X104144685Y-90679197D02*
X104097066Y-90631578D01*
X104097066Y-90631578D02*
X104049447Y-90536340D01*
X105382780Y-92345864D02*
X105382780Y-92536340D01*
X105382780Y-92536340D02*
X105335161Y-92631578D01*
X105335161Y-92631578D02*
X105239923Y-92726816D01*
X105239923Y-92726816D02*
X105049447Y-92774435D01*
X105049447Y-92774435D02*
X104716114Y-92774435D01*
X104716114Y-92774435D02*
X104525638Y-92726816D01*
X104525638Y-92726816D02*
X104430400Y-92631578D01*
X104430400Y-92631578D02*
X104382780Y-92536340D01*
X104382780Y-92536340D02*
X104382780Y-92345864D01*
X104382780Y-92345864D02*
X104430400Y-92250626D01*
X104430400Y-92250626D02*
X104525638Y-92155388D01*
X104525638Y-92155388D02*
X104716114Y-92107769D01*
X104716114Y-92107769D02*
X105049447Y-92107769D01*
X105049447Y-92107769D02*
X105239923Y-92155388D01*
X105239923Y-92155388D02*
X105335161Y-92250626D01*
X105335161Y-92250626D02*
X105382780Y-92345864D01*
X104382780Y-93345864D02*
X104430400Y-93250626D01*
X104430400Y-93250626D02*
X104525638Y-93203007D01*
X104525638Y-93203007D02*
X105382780Y-93203007D01*
X105049447Y-94155388D02*
X104239923Y-94155388D01*
X104239923Y-94155388D02*
X104144685Y-94107769D01*
X104144685Y-94107769D02*
X104097066Y-94060150D01*
X104097066Y-94060150D02*
X104049447Y-93964912D01*
X104049447Y-93964912D02*
X104049447Y-93822055D01*
X104049447Y-93822055D02*
X104097066Y-93726817D01*
X104430400Y-94155388D02*
X104382780Y-94060150D01*
X104382780Y-94060150D02*
X104382780Y-93869674D01*
X104382780Y-93869674D02*
X104430400Y-93774436D01*
X104430400Y-93774436D02*
X104478019Y-93726817D01*
X104478019Y-93726817D02*
X104573257Y-93679198D01*
X104573257Y-93679198D02*
X104858971Y-93679198D01*
X104858971Y-93679198D02*
X104954209Y-93726817D01*
X104954209Y-93726817D02*
X105001828Y-93774436D01*
X105001828Y-93774436D02*
X105049447Y-93869674D01*
X105049447Y-93869674D02*
X105049447Y-94060150D01*
X105049447Y-94060150D02*
X105001828Y-94155388D01*
X104382780Y-94631579D02*
X105049447Y-94631579D01*
X105382780Y-94631579D02*
X105335161Y-94583960D01*
X105335161Y-94583960D02*
X105287542Y-94631579D01*
X105287542Y-94631579D02*
X105335161Y-94679198D01*
X105335161Y-94679198D02*
X105382780Y-94631579D01*
X105382780Y-94631579D02*
X105287542Y-94631579D01*
X104430400Y-95488721D02*
X104382780Y-95393483D01*
X104382780Y-95393483D02*
X104382780Y-95203007D01*
X104382780Y-95203007D02*
X104430400Y-95107769D01*
X104430400Y-95107769D02*
X104525638Y-95060150D01*
X104525638Y-95060150D02*
X104906590Y-95060150D01*
X104906590Y-95060150D02*
X105001828Y-95107769D01*
X105001828Y-95107769D02*
X105049447Y-95203007D01*
X105049447Y-95203007D02*
X105049447Y-95393483D01*
X105049447Y-95393483D02*
X105001828Y-95488721D01*
X105001828Y-95488721D02*
X104906590Y-95536340D01*
X104906590Y-95536340D02*
X104811352Y-95536340D01*
X104811352Y-95536340D02*
X104716114Y-95060150D01*
X104382780Y-95964912D02*
X105049447Y-95964912D01*
X104858971Y-95964912D02*
X104954209Y-96012531D01*
X104954209Y-96012531D02*
X105001828Y-96060150D01*
X105001828Y-96060150D02*
X105049447Y-96155388D01*
X105049447Y-96155388D02*
X105049447Y-96250626D01*
X104382780Y-97012531D02*
X105382780Y-97012531D01*
X104430400Y-97012531D02*
X104382780Y-96917293D01*
X104382780Y-96917293D02*
X104382780Y-96726817D01*
X104382780Y-96726817D02*
X104430400Y-96631579D01*
X104430400Y-96631579D02*
X104478019Y-96583960D01*
X104478019Y-96583960D02*
X104573257Y-96536341D01*
X104573257Y-96536341D02*
X104858971Y-96536341D01*
X104858971Y-96536341D02*
X104954209Y-96583960D01*
X104954209Y-96583960D02*
X105001828Y-96631579D01*
X105001828Y-96631579D02*
X105049447Y-96726817D01*
X105049447Y-96726817D02*
X105049447Y-96917293D01*
X105049447Y-96917293D02*
X105001828Y-97012531D01*
X104382780Y-98250627D02*
X105382780Y-98250627D01*
X105382780Y-98250627D02*
X104668495Y-98583960D01*
X104668495Y-98583960D02*
X105382780Y-98917293D01*
X105382780Y-98917293D02*
X104382780Y-98917293D01*
X104382780Y-99822055D02*
X104906590Y-99822055D01*
X104906590Y-99822055D02*
X105001828Y-99774436D01*
X105001828Y-99774436D02*
X105049447Y-99679198D01*
X105049447Y-99679198D02*
X105049447Y-99488722D01*
X105049447Y-99488722D02*
X105001828Y-99393484D01*
X104430400Y-99822055D02*
X104382780Y-99726817D01*
X104382780Y-99726817D02*
X104382780Y-99488722D01*
X104382780Y-99488722D02*
X104430400Y-99393484D01*
X104430400Y-99393484D02*
X104525638Y-99345865D01*
X104525638Y-99345865D02*
X104620876Y-99345865D01*
X104620876Y-99345865D02*
X104716114Y-99393484D01*
X104716114Y-99393484D02*
X104763733Y-99488722D01*
X104763733Y-99488722D02*
X104763733Y-99726817D01*
X104763733Y-99726817D02*
X104811352Y-99822055D01*
X105049447Y-100155389D02*
X105049447Y-100536341D01*
X105382780Y-100298246D02*
X104525638Y-100298246D01*
X104525638Y-100298246D02*
X104430400Y-100345865D01*
X104430400Y-100345865D02*
X104382780Y-100441103D01*
X104382780Y-100441103D02*
X104382780Y-100536341D01*
X105049447Y-101298246D02*
X104382780Y-101298246D01*
X105049447Y-100869675D02*
X104525638Y-100869675D01*
X104525638Y-100869675D02*
X104430400Y-100917294D01*
X104430400Y-100917294D02*
X104382780Y-101012532D01*
X104382780Y-101012532D02*
X104382780Y-101155389D01*
X104382780Y-101155389D02*
X104430400Y-101250627D01*
X104430400Y-101250627D02*
X104478019Y-101298246D01*
X104430400Y-101726818D02*
X104382780Y-101822056D01*
X104382780Y-101822056D02*
X104382780Y-102012532D01*
X104382780Y-102012532D02*
X104430400Y-102107770D01*
X104430400Y-102107770D02*
X104525638Y-102155389D01*
X104525638Y-102155389D02*
X104573257Y-102155389D01*
X104573257Y-102155389D02*
X104668495Y-102107770D01*
X104668495Y-102107770D02*
X104716114Y-102012532D01*
X104716114Y-102012532D02*
X104716114Y-101869675D01*
X104716114Y-101869675D02*
X104763733Y-101774437D01*
X104763733Y-101774437D02*
X104858971Y-101726818D01*
X104858971Y-101726818D02*
X104906590Y-101726818D01*
X104906590Y-101726818D02*
X105001828Y-101774437D01*
X105001828Y-101774437D02*
X105049447Y-101869675D01*
X105049447Y-101869675D02*
X105049447Y-102012532D01*
X105049447Y-102012532D02*
X105001828Y-102107770D01*
X104382780Y-102583961D02*
X105049447Y-102583961D01*
X105382780Y-102583961D02*
X105335161Y-102536342D01*
X105335161Y-102536342D02*
X105287542Y-102583961D01*
X105287542Y-102583961D02*
X105335161Y-102631580D01*
X105335161Y-102631580D02*
X105382780Y-102583961D01*
X105382780Y-102583961D02*
X105287542Y-102583961D01*
X104430400Y-103441103D02*
X104382780Y-103345865D01*
X104382780Y-103345865D02*
X104382780Y-103155389D01*
X104382780Y-103155389D02*
X104430400Y-103060151D01*
X104430400Y-103060151D02*
X104525638Y-103012532D01*
X104525638Y-103012532D02*
X104906590Y-103012532D01*
X104906590Y-103012532D02*
X105001828Y-103060151D01*
X105001828Y-103060151D02*
X105049447Y-103155389D01*
X105049447Y-103155389D02*
X105049447Y-103345865D01*
X105049447Y-103345865D02*
X105001828Y-103441103D01*
X105001828Y-103441103D02*
X104906590Y-103488722D01*
X104906590Y-103488722D02*
X104811352Y-103488722D01*
X104811352Y-103488722D02*
X104716114Y-103012532D01*
X105049447Y-103822056D02*
X104382780Y-104012532D01*
X104382780Y-104012532D02*
X104858971Y-104203008D01*
X104858971Y-104203008D02*
X104382780Y-104393484D01*
X104382780Y-104393484D02*
X105049447Y-104583960D01*
X104382780Y-104964913D02*
X105049447Y-104964913D01*
X105382780Y-104964913D02*
X105335161Y-104917294D01*
X105335161Y-104917294D02*
X105287542Y-104964913D01*
X105287542Y-104964913D02*
X105335161Y-105012532D01*
X105335161Y-105012532D02*
X105382780Y-104964913D01*
X105382780Y-104964913D02*
X105287542Y-104964913D01*
X104430400Y-105869674D02*
X104382780Y-105774436D01*
X104382780Y-105774436D02*
X104382780Y-105583960D01*
X104382780Y-105583960D02*
X104430400Y-105488722D01*
X104430400Y-105488722D02*
X104478019Y-105441103D01*
X104478019Y-105441103D02*
X104573257Y-105393484D01*
X104573257Y-105393484D02*
X104858971Y-105393484D01*
X104858971Y-105393484D02*
X104954209Y-105441103D01*
X104954209Y-105441103D02*
X105001828Y-105488722D01*
X105001828Y-105488722D02*
X105049447Y-105583960D01*
X105049447Y-105583960D02*
X105049447Y-105774436D01*
X105049447Y-105774436D02*
X105001828Y-105869674D01*
X105049447Y-106203008D02*
X105049447Y-106726817D01*
X105049447Y-106726817D02*
X104382780Y-106203008D01*
X104382780Y-106203008D02*
X104382780Y-106726817D01*
X138274435Y-85367219D02*
X138512530Y-86367219D01*
X138512530Y-86367219D02*
X138703006Y-85652933D01*
X138703006Y-85652933D02*
X138893482Y-86367219D01*
X138893482Y-86367219D02*
X139131578Y-85367219D01*
X139941101Y-86367219D02*
X139941101Y-85843409D01*
X139941101Y-85843409D02*
X139893482Y-85748171D01*
X139893482Y-85748171D02*
X139798244Y-85700552D01*
X139798244Y-85700552D02*
X139607768Y-85700552D01*
X139607768Y-85700552D02*
X139512530Y-85748171D01*
X139941101Y-86319600D02*
X139845863Y-86367219D01*
X139845863Y-86367219D02*
X139607768Y-86367219D01*
X139607768Y-86367219D02*
X139512530Y-86319600D01*
X139512530Y-86319600D02*
X139464911Y-86224361D01*
X139464911Y-86224361D02*
X139464911Y-86129123D01*
X139464911Y-86129123D02*
X139512530Y-86033885D01*
X139512530Y-86033885D02*
X139607768Y-85986266D01*
X139607768Y-85986266D02*
X139845863Y-85986266D01*
X139845863Y-85986266D02*
X139941101Y-85938647D01*
X140322054Y-85700552D02*
X140560149Y-86367219D01*
X140798244Y-85700552D02*
X140560149Y-86367219D01*
X140560149Y-86367219D02*
X140464911Y-86605314D01*
X140464911Y-86605314D02*
X140417292Y-86652933D01*
X140417292Y-86652933D02*
X140322054Y-86700552D01*
X141083959Y-85367219D02*
X141322054Y-86367219D01*
X141322054Y-86367219D02*
X141512530Y-85652933D01*
X141512530Y-85652933D02*
X141703006Y-86367219D01*
X141703006Y-86367219D02*
X141941102Y-85367219D01*
X142750625Y-86367219D02*
X142750625Y-85843409D01*
X142750625Y-85843409D02*
X142703006Y-85748171D01*
X142703006Y-85748171D02*
X142607768Y-85700552D01*
X142607768Y-85700552D02*
X142417292Y-85700552D01*
X142417292Y-85700552D02*
X142322054Y-85748171D01*
X142750625Y-86319600D02*
X142655387Y-86367219D01*
X142655387Y-86367219D02*
X142417292Y-86367219D01*
X142417292Y-86367219D02*
X142322054Y-86319600D01*
X142322054Y-86319600D02*
X142274435Y-86224361D01*
X142274435Y-86224361D02*
X142274435Y-86129123D01*
X142274435Y-86129123D02*
X142322054Y-86033885D01*
X142322054Y-86033885D02*
X142417292Y-85986266D01*
X142417292Y-85986266D02*
X142655387Y-85986266D01*
X142655387Y-85986266D02*
X142750625Y-85938647D01*
X143131578Y-85700552D02*
X143369673Y-86367219D01*
X143607768Y-85700552D02*
X143369673Y-86367219D01*
X143369673Y-86367219D02*
X143274435Y-86605314D01*
X143274435Y-86605314D02*
X143226816Y-86652933D01*
X143226816Y-86652933D02*
X143131578Y-86700552D01*
X143893483Y-85367219D02*
X144131578Y-86367219D01*
X144131578Y-86367219D02*
X144322054Y-85652933D01*
X144322054Y-85652933D02*
X144512530Y-86367219D01*
X144512530Y-86367219D02*
X144750626Y-85367219D01*
X145560149Y-86367219D02*
X145560149Y-85843409D01*
X145560149Y-85843409D02*
X145512530Y-85748171D01*
X145512530Y-85748171D02*
X145417292Y-85700552D01*
X145417292Y-85700552D02*
X145226816Y-85700552D01*
X145226816Y-85700552D02*
X145131578Y-85748171D01*
X145560149Y-86319600D02*
X145464911Y-86367219D01*
X145464911Y-86367219D02*
X145226816Y-86367219D01*
X145226816Y-86367219D02*
X145131578Y-86319600D01*
X145131578Y-86319600D02*
X145083959Y-86224361D01*
X145083959Y-86224361D02*
X145083959Y-86129123D01*
X145083959Y-86129123D02*
X145131578Y-86033885D01*
X145131578Y-86033885D02*
X145226816Y-85986266D01*
X145226816Y-85986266D02*
X145464911Y-85986266D01*
X145464911Y-85986266D02*
X145560149Y-85938647D01*
X145941102Y-85700552D02*
X146179197Y-86367219D01*
X146417292Y-85700552D02*
X146179197Y-86367219D01*
X146179197Y-86367219D02*
X146083959Y-86605314D01*
X146083959Y-86605314D02*
X146036340Y-86652933D01*
X146036340Y-86652933D02*
X145941102Y-86700552D01*
D12*
X131892142Y-124204819D02*
X131558809Y-123728628D01*
X131320714Y-124204819D02*
X131320714Y-123204819D01*
X131320714Y-123204819D02*
X131701666Y-123204819D01*
X131701666Y-123204819D02*
X131796904Y-123252438D01*
X131796904Y-123252438D02*
X131844523Y-123300057D01*
X131844523Y-123300057D02*
X131892142Y-123395295D01*
X131892142Y-123395295D02*
X131892142Y-123538152D01*
X131892142Y-123538152D02*
X131844523Y-123633390D01*
X131844523Y-123633390D02*
X131796904Y-123681009D01*
X131796904Y-123681009D02*
X131701666Y-123728628D01*
X131701666Y-123728628D02*
X131320714Y-123728628D01*
X132844523Y-124204819D02*
X132273095Y-124204819D01*
X132558809Y-124204819D02*
X132558809Y-123204819D01*
X132558809Y-123204819D02*
X132463571Y-123347676D01*
X132463571Y-123347676D02*
X132368333Y-123442914D01*
X132368333Y-123442914D02*
X132273095Y-123490533D01*
X133463571Y-123204819D02*
X133558809Y-123204819D01*
X133558809Y-123204819D02*
X133654047Y-123252438D01*
X133654047Y-123252438D02*
X133701666Y-123300057D01*
X133701666Y-123300057D02*
X133749285Y-123395295D01*
X133749285Y-123395295D02*
X133796904Y-123585771D01*
X133796904Y-123585771D02*
X133796904Y-123823866D01*
X133796904Y-123823866D02*
X133749285Y-124014342D01*
X133749285Y-124014342D02*
X133701666Y-124109580D01*
X133701666Y-124109580D02*
X133654047Y-124157200D01*
X133654047Y-124157200D02*
X133558809Y-124204819D01*
X133558809Y-124204819D02*
X133463571Y-124204819D01*
X133463571Y-124204819D02*
X133368333Y-124157200D01*
X133368333Y-124157200D02*
X133320714Y-124109580D01*
X133320714Y-124109580D02*
X133273095Y-124014342D01*
X133273095Y-124014342D02*
X133225476Y-123823866D01*
X133225476Y-123823866D02*
X133225476Y-123585771D01*
X133225476Y-123585771D02*
X133273095Y-123395295D01*
X133273095Y-123395295D02*
X133320714Y-123300057D01*
X133320714Y-123300057D02*
X133368333Y-123252438D01*
X133368333Y-123252438D02*
X133463571Y-123204819D01*
X132368333Y-119928219D02*
X132035000Y-119452028D01*
X131796905Y-119928219D02*
X131796905Y-118928219D01*
X131796905Y-118928219D02*
X132177857Y-118928219D01*
X132177857Y-118928219D02*
X132273095Y-118975838D01*
X132273095Y-118975838D02*
X132320714Y-119023457D01*
X132320714Y-119023457D02*
X132368333Y-119118695D01*
X132368333Y-119118695D02*
X132368333Y-119261552D01*
X132368333Y-119261552D02*
X132320714Y-119356790D01*
X132320714Y-119356790D02*
X132273095Y-119404409D01*
X132273095Y-119404409D02*
X132177857Y-119452028D01*
X132177857Y-119452028D02*
X131796905Y-119452028D01*
X132844524Y-119928219D02*
X133035000Y-119928219D01*
X133035000Y-119928219D02*
X133130238Y-119880600D01*
X133130238Y-119880600D02*
X133177857Y-119832980D01*
X133177857Y-119832980D02*
X133273095Y-119690123D01*
X133273095Y-119690123D02*
X133320714Y-119499647D01*
X133320714Y-119499647D02*
X133320714Y-119118695D01*
X133320714Y-119118695D02*
X133273095Y-119023457D01*
X133273095Y-119023457D02*
X133225476Y-118975838D01*
X133225476Y-118975838D02*
X133130238Y-118928219D01*
X133130238Y-118928219D02*
X132939762Y-118928219D01*
X132939762Y-118928219D02*
X132844524Y-118975838D01*
X132844524Y-118975838D02*
X132796905Y-119023457D01*
X132796905Y-119023457D02*
X132749286Y-119118695D01*
X132749286Y-119118695D02*
X132749286Y-119356790D01*
X132749286Y-119356790D02*
X132796905Y-119452028D01*
X132796905Y-119452028D02*
X132844524Y-119499647D01*
X132844524Y-119499647D02*
X132939762Y-119547266D01*
X132939762Y-119547266D02*
X133130238Y-119547266D01*
X133130238Y-119547266D02*
X133225476Y-119499647D01*
X133225476Y-119499647D02*
X133273095Y-119452028D01*
X133273095Y-119452028D02*
X133320714Y-119356790D01*
X118333333Y-78625019D02*
X118000000Y-78148828D01*
X117761905Y-78625019D02*
X117761905Y-77625019D01*
X117761905Y-77625019D02*
X118142857Y-77625019D01*
X118142857Y-77625019D02*
X118238095Y-77672638D01*
X118238095Y-77672638D02*
X118285714Y-77720257D01*
X118285714Y-77720257D02*
X118333333Y-77815495D01*
X118333333Y-77815495D02*
X118333333Y-77958352D01*
X118333333Y-77958352D02*
X118285714Y-78053590D01*
X118285714Y-78053590D02*
X118238095Y-78101209D01*
X118238095Y-78101209D02*
X118142857Y-78148828D01*
X118142857Y-78148828D02*
X117761905Y-78148828D01*
X119285714Y-78625019D02*
X118714286Y-78625019D01*
X119000000Y-78625019D02*
X119000000Y-77625019D01*
X119000000Y-77625019D02*
X118904762Y-77767876D01*
X118904762Y-77767876D02*
X118809524Y-77863114D01*
X118809524Y-77863114D02*
X118714286Y-77910733D01*
X118333333Y-104284619D02*
X118000000Y-103808428D01*
X117761905Y-104284619D02*
X117761905Y-103284619D01*
X117761905Y-103284619D02*
X118142857Y-103284619D01*
X118142857Y-103284619D02*
X118238095Y-103332238D01*
X118238095Y-103332238D02*
X118285714Y-103379857D01*
X118285714Y-103379857D02*
X118333333Y-103475095D01*
X118333333Y-103475095D02*
X118333333Y-103617952D01*
X118333333Y-103617952D02*
X118285714Y-103713190D01*
X118285714Y-103713190D02*
X118238095Y-103760809D01*
X118238095Y-103760809D02*
X118142857Y-103808428D01*
X118142857Y-103808428D02*
X117761905Y-103808428D01*
X118666667Y-103284619D02*
X119333333Y-103284619D01*
X119333333Y-103284619D02*
X118904762Y-104284619D01*
X126238095Y-115954819D02*
X126238095Y-116764342D01*
X126238095Y-116764342D02*
X126285714Y-116859580D01*
X126285714Y-116859580D02*
X126333333Y-116907200D01*
X126333333Y-116907200D02*
X126428571Y-116954819D01*
X126428571Y-116954819D02*
X126619047Y-116954819D01*
X126619047Y-116954819D02*
X126714285Y-116907200D01*
X126714285Y-116907200D02*
X126761904Y-116859580D01*
X126761904Y-116859580D02*
X126809523Y-116764342D01*
X126809523Y-116764342D02*
X126809523Y-115954819D01*
X127714285Y-116288152D02*
X127714285Y-116954819D01*
X127476190Y-115907200D02*
X127238095Y-116621485D01*
X127238095Y-116621485D02*
X127857142Y-116621485D01*
X164095238Y-106804819D02*
X164095238Y-105804819D01*
X164095238Y-105804819D02*
X164428571Y-106519104D01*
X164428571Y-106519104D02*
X164761904Y-105804819D01*
X164761904Y-105804819D02*
X164761904Y-106804819D01*
X165142857Y-105804819D02*
X165761904Y-105804819D01*
X165761904Y-105804819D02*
X165428571Y-106185771D01*
X165428571Y-106185771D02*
X165571428Y-106185771D01*
X165571428Y-106185771D02*
X165666666Y-106233390D01*
X165666666Y-106233390D02*
X165714285Y-106281009D01*
X165714285Y-106281009D02*
X165761904Y-106376247D01*
X165761904Y-106376247D02*
X165761904Y-106614342D01*
X165761904Y-106614342D02*
X165714285Y-106709580D01*
X165714285Y-106709580D02*
X165666666Y-106757200D01*
X165666666Y-106757200D02*
X165571428Y-106804819D01*
X165571428Y-106804819D02*
X165285714Y-106804819D01*
X165285714Y-106804819D02*
X165190476Y-106757200D01*
X165190476Y-106757200D02*
X165142857Y-106709580D01*
X166190476Y-106423866D02*
X166952381Y-106423866D01*
X167952380Y-106804819D02*
X167380952Y-106804819D01*
X167666666Y-106804819D02*
X167666666Y-105804819D01*
X167666666Y-105804819D02*
X167571428Y-105947676D01*
X167571428Y-105947676D02*
X167476190Y-106042914D01*
X167476190Y-106042914D02*
X167380952Y-106090533D01*
X118333333Y-87178219D02*
X118000000Y-86702028D01*
X117761905Y-87178219D02*
X117761905Y-86178219D01*
X117761905Y-86178219D02*
X118142857Y-86178219D01*
X118142857Y-86178219D02*
X118238095Y-86225838D01*
X118238095Y-86225838D02*
X118285714Y-86273457D01*
X118285714Y-86273457D02*
X118333333Y-86368695D01*
X118333333Y-86368695D02*
X118333333Y-86511552D01*
X118333333Y-86511552D02*
X118285714Y-86606790D01*
X118285714Y-86606790D02*
X118238095Y-86654409D01*
X118238095Y-86654409D02*
X118142857Y-86702028D01*
X118142857Y-86702028D02*
X117761905Y-86702028D01*
X118666667Y-86178219D02*
X119285714Y-86178219D01*
X119285714Y-86178219D02*
X118952381Y-86559171D01*
X118952381Y-86559171D02*
X119095238Y-86559171D01*
X119095238Y-86559171D02*
X119190476Y-86606790D01*
X119190476Y-86606790D02*
X119238095Y-86654409D01*
X119238095Y-86654409D02*
X119285714Y-86749647D01*
X119285714Y-86749647D02*
X119285714Y-86987742D01*
X119285714Y-86987742D02*
X119238095Y-87082980D01*
X119238095Y-87082980D02*
X119190476Y-87130600D01*
X119190476Y-87130600D02*
X119095238Y-87178219D01*
X119095238Y-87178219D02*
X118809524Y-87178219D01*
X118809524Y-87178219D02*
X118714286Y-87130600D01*
X118714286Y-87130600D02*
X118666667Y-87082980D01*
X158666666Y-119204819D02*
X158666666Y-119919104D01*
X158666666Y-119919104D02*
X158619047Y-120061961D01*
X158619047Y-120061961D02*
X158523809Y-120157200D01*
X158523809Y-120157200D02*
X158380952Y-120204819D01*
X158380952Y-120204819D02*
X158285714Y-120204819D01*
X159095238Y-119300057D02*
X159142857Y-119252438D01*
X159142857Y-119252438D02*
X159238095Y-119204819D01*
X159238095Y-119204819D02*
X159476190Y-119204819D01*
X159476190Y-119204819D02*
X159571428Y-119252438D01*
X159571428Y-119252438D02*
X159619047Y-119300057D01*
X159619047Y-119300057D02*
X159666666Y-119395295D01*
X159666666Y-119395295D02*
X159666666Y-119490533D01*
X159666666Y-119490533D02*
X159619047Y-119633390D01*
X159619047Y-119633390D02*
X159047619Y-120204819D01*
X159047619Y-120204819D02*
X159666666Y-120204819D01*
X110511905Y-124454819D02*
X110511905Y-123454819D01*
X110511905Y-123454819D02*
X110750000Y-123454819D01*
X110750000Y-123454819D02*
X110892857Y-123502438D01*
X110892857Y-123502438D02*
X110988095Y-123597676D01*
X110988095Y-123597676D02*
X111035714Y-123692914D01*
X111035714Y-123692914D02*
X111083333Y-123883390D01*
X111083333Y-123883390D02*
X111083333Y-124026247D01*
X111083333Y-124026247D02*
X111035714Y-124216723D01*
X111035714Y-124216723D02*
X110988095Y-124311961D01*
X110988095Y-124311961D02*
X110892857Y-124407200D01*
X110892857Y-124407200D02*
X110750000Y-124454819D01*
X110750000Y-124454819D02*
X110511905Y-124454819D01*
X112083333Y-124359580D02*
X112035714Y-124407200D01*
X112035714Y-124407200D02*
X111892857Y-124454819D01*
X111892857Y-124454819D02*
X111797619Y-124454819D01*
X111797619Y-124454819D02*
X111654762Y-124407200D01*
X111654762Y-124407200D02*
X111559524Y-124311961D01*
X111559524Y-124311961D02*
X111511905Y-124216723D01*
X111511905Y-124216723D02*
X111464286Y-124026247D01*
X111464286Y-124026247D02*
X111464286Y-123883390D01*
X111464286Y-123883390D02*
X111511905Y-123692914D01*
X111511905Y-123692914D02*
X111559524Y-123597676D01*
X111559524Y-123597676D02*
X111654762Y-123502438D01*
X111654762Y-123502438D02*
X111797619Y-123454819D01*
X111797619Y-123454819D02*
X111892857Y-123454819D01*
X111892857Y-123454819D02*
X112035714Y-123502438D01*
X112035714Y-123502438D02*
X112083333Y-123550057D01*
X113035714Y-124454819D02*
X112464286Y-124454819D01*
X112750000Y-124454819D02*
X112750000Y-123454819D01*
X112750000Y-123454819D02*
X112654762Y-123597676D01*
X112654762Y-123597676D02*
X112559524Y-123692914D01*
X112559524Y-123692914D02*
X112464286Y-123740533D01*
X118333333Y-95731419D02*
X118000000Y-95255228D01*
X117761905Y-95731419D02*
X117761905Y-94731419D01*
X117761905Y-94731419D02*
X118142857Y-94731419D01*
X118142857Y-94731419D02*
X118238095Y-94779038D01*
X118238095Y-94779038D02*
X118285714Y-94826657D01*
X118285714Y-94826657D02*
X118333333Y-94921895D01*
X118333333Y-94921895D02*
X118333333Y-95064752D01*
X118333333Y-95064752D02*
X118285714Y-95159990D01*
X118285714Y-95159990D02*
X118238095Y-95207609D01*
X118238095Y-95207609D02*
X118142857Y-95255228D01*
X118142857Y-95255228D02*
X117761905Y-95255228D01*
X119238095Y-94731419D02*
X118761905Y-94731419D01*
X118761905Y-94731419D02*
X118714286Y-95207609D01*
X118714286Y-95207609D02*
X118761905Y-95159990D01*
X118761905Y-95159990D02*
X118857143Y-95112371D01*
X118857143Y-95112371D02*
X119095238Y-95112371D01*
X119095238Y-95112371D02*
X119190476Y-95159990D01*
X119190476Y-95159990D02*
X119238095Y-95207609D01*
X119238095Y-95207609D02*
X119285714Y-95302847D01*
X119285714Y-95302847D02*
X119285714Y-95540942D01*
X119285714Y-95540942D02*
X119238095Y-95636180D01*
X119238095Y-95636180D02*
X119190476Y-95683800D01*
X119190476Y-95683800D02*
X119095238Y-95731419D01*
X119095238Y-95731419D02*
X118857143Y-95731419D01*
X118857143Y-95731419D02*
X118761905Y-95683800D01*
X118761905Y-95683800D02*
X118714286Y-95636180D01*
X106095238Y-105304819D02*
X106095238Y-104304819D01*
X106095238Y-104304819D02*
X106428571Y-105019104D01*
X106428571Y-105019104D02*
X106761904Y-104304819D01*
X106761904Y-104304819D02*
X106761904Y-105304819D01*
X107142857Y-104304819D02*
X107761904Y-104304819D01*
X107761904Y-104304819D02*
X107428571Y-104685771D01*
X107428571Y-104685771D02*
X107571428Y-104685771D01*
X107571428Y-104685771D02*
X107666666Y-104733390D01*
X107666666Y-104733390D02*
X107714285Y-104781009D01*
X107714285Y-104781009D02*
X107761904Y-104876247D01*
X107761904Y-104876247D02*
X107761904Y-105114342D01*
X107761904Y-105114342D02*
X107714285Y-105209580D01*
X107714285Y-105209580D02*
X107666666Y-105257200D01*
X107666666Y-105257200D02*
X107571428Y-105304819D01*
X107571428Y-105304819D02*
X107285714Y-105304819D01*
X107285714Y-105304819D02*
X107190476Y-105257200D01*
X107190476Y-105257200D02*
X107142857Y-105209580D01*
X108190476Y-104923866D02*
X108952381Y-104923866D01*
X109380952Y-104400057D02*
X109428571Y-104352438D01*
X109428571Y-104352438D02*
X109523809Y-104304819D01*
X109523809Y-104304819D02*
X109761904Y-104304819D01*
X109761904Y-104304819D02*
X109857142Y-104352438D01*
X109857142Y-104352438D02*
X109904761Y-104400057D01*
X109904761Y-104400057D02*
X109952380Y-104495295D01*
X109952380Y-104495295D02*
X109952380Y-104590533D01*
X109952380Y-104590533D02*
X109904761Y-104733390D01*
X109904761Y-104733390D02*
X109333333Y-105304819D01*
X109333333Y-105304819D02*
X109952380Y-105304819D01*
X149669104Y-86964285D02*
X149669104Y-86488095D01*
X149954819Y-87059523D02*
X148954819Y-86726190D01*
X148954819Y-86726190D02*
X149954819Y-86392857D01*
X149954819Y-85535714D02*
X149954819Y-86107142D01*
X149954819Y-85821428D02*
X148954819Y-85821428D01*
X148954819Y-85821428D02*
X149097676Y-85916666D01*
X149097676Y-85916666D02*
X149192914Y-86011904D01*
X149192914Y-86011904D02*
X149240533Y-86107142D01*
X164854819Y-87141904D02*
X165664342Y-87141904D01*
X165664342Y-87141904D02*
X165759580Y-87094285D01*
X165759580Y-87094285D02*
X165807200Y-87046666D01*
X165807200Y-87046666D02*
X165854819Y-86951428D01*
X165854819Y-86951428D02*
X165854819Y-86760952D01*
X165854819Y-86760952D02*
X165807200Y-86665714D01*
X165807200Y-86665714D02*
X165759580Y-86618095D01*
X165759580Y-86618095D02*
X165664342Y-86570476D01*
X165664342Y-86570476D02*
X164854819Y-86570476D01*
X165807200Y-86141904D02*
X165854819Y-85999047D01*
X165854819Y-85999047D02*
X165854819Y-85760952D01*
X165854819Y-85760952D02*
X165807200Y-85665714D01*
X165807200Y-85665714D02*
X165759580Y-85618095D01*
X165759580Y-85618095D02*
X165664342Y-85570476D01*
X165664342Y-85570476D02*
X165569104Y-85570476D01*
X165569104Y-85570476D02*
X165473866Y-85618095D01*
X165473866Y-85618095D02*
X165426247Y-85665714D01*
X165426247Y-85665714D02*
X165378628Y-85760952D01*
X165378628Y-85760952D02*
X165331009Y-85951428D01*
X165331009Y-85951428D02*
X165283390Y-86046666D01*
X165283390Y-86046666D02*
X165235771Y-86094285D01*
X165235771Y-86094285D02*
X165140533Y-86141904D01*
X165140533Y-86141904D02*
X165045295Y-86141904D01*
X165045295Y-86141904D02*
X164950057Y-86094285D01*
X164950057Y-86094285D02*
X164902438Y-86046666D01*
X164902438Y-86046666D02*
X164854819Y-85951428D01*
X164854819Y-85951428D02*
X164854819Y-85713333D01*
X164854819Y-85713333D02*
X164902438Y-85570476D01*
X165331009Y-84808571D02*
X165378628Y-84665714D01*
X165378628Y-84665714D02*
X165426247Y-84618095D01*
X165426247Y-84618095D02*
X165521485Y-84570476D01*
X165521485Y-84570476D02*
X165664342Y-84570476D01*
X165664342Y-84570476D02*
X165759580Y-84618095D01*
X165759580Y-84618095D02*
X165807200Y-84665714D01*
X165807200Y-84665714D02*
X165854819Y-84760952D01*
X165854819Y-84760952D02*
X165854819Y-85141904D01*
X165854819Y-85141904D02*
X164854819Y-85141904D01*
X164854819Y-85141904D02*
X164854819Y-84808571D01*
X164854819Y-84808571D02*
X164902438Y-84713333D01*
X164902438Y-84713333D02*
X164950057Y-84665714D01*
X164950057Y-84665714D02*
X165045295Y-84618095D01*
X165045295Y-84618095D02*
X165140533Y-84618095D01*
X165140533Y-84618095D02*
X165235771Y-84665714D01*
X165235771Y-84665714D02*
X165283390Y-84713333D01*
X165283390Y-84713333D02*
X165331009Y-84808571D01*
X165331009Y-84808571D02*
X165331009Y-85141904D01*
X131238095Y-106454819D02*
X131238095Y-107264342D01*
X131238095Y-107264342D02*
X131285714Y-107359580D01*
X131285714Y-107359580D02*
X131333333Y-107407200D01*
X131333333Y-107407200D02*
X131428571Y-107454819D01*
X131428571Y-107454819D02*
X131619047Y-107454819D01*
X131619047Y-107454819D02*
X131714285Y-107407200D01*
X131714285Y-107407200D02*
X131761904Y-107359580D01*
X131761904Y-107359580D02*
X131809523Y-107264342D01*
X131809523Y-107264342D02*
X131809523Y-106454819D01*
X132809523Y-107454819D02*
X132238095Y-107454819D01*
X132523809Y-107454819D02*
X132523809Y-106454819D01*
X132523809Y-106454819D02*
X132428571Y-106597676D01*
X132428571Y-106597676D02*
X132333333Y-106692914D01*
X132333333Y-106692914D02*
X132238095Y-106740533D01*
X158666666Y-101454819D02*
X158666666Y-102169104D01*
X158666666Y-102169104D02*
X158619047Y-102311961D01*
X158619047Y-102311961D02*
X158523809Y-102407200D01*
X158523809Y-102407200D02*
X158380952Y-102454819D01*
X158380952Y-102454819D02*
X158285714Y-102454819D01*
X159666666Y-102454819D02*
X159095238Y-102454819D01*
X159380952Y-102454819D02*
X159380952Y-101454819D01*
X159380952Y-101454819D02*
X159285714Y-101597676D01*
X159285714Y-101597676D02*
X159190476Y-101692914D01*
X159190476Y-101692914D02*
X159095238Y-101740533D01*
X118333333Y-82901619D02*
X118000000Y-82425428D01*
X117761905Y-82901619D02*
X117761905Y-81901619D01*
X117761905Y-81901619D02*
X118142857Y-81901619D01*
X118142857Y-81901619D02*
X118238095Y-81949238D01*
X118238095Y-81949238D02*
X118285714Y-81996857D01*
X118285714Y-81996857D02*
X118333333Y-82092095D01*
X118333333Y-82092095D02*
X118333333Y-82234952D01*
X118333333Y-82234952D02*
X118285714Y-82330190D01*
X118285714Y-82330190D02*
X118238095Y-82377809D01*
X118238095Y-82377809D02*
X118142857Y-82425428D01*
X118142857Y-82425428D02*
X117761905Y-82425428D01*
X118714286Y-81996857D02*
X118761905Y-81949238D01*
X118761905Y-81949238D02*
X118857143Y-81901619D01*
X118857143Y-81901619D02*
X119095238Y-81901619D01*
X119095238Y-81901619D02*
X119190476Y-81949238D01*
X119190476Y-81949238D02*
X119238095Y-81996857D01*
X119238095Y-81996857D02*
X119285714Y-82092095D01*
X119285714Y-82092095D02*
X119285714Y-82187333D01*
X119285714Y-82187333D02*
X119238095Y-82330190D01*
X119238095Y-82330190D02*
X118666667Y-82901619D01*
X118666667Y-82901619D02*
X119285714Y-82901619D01*
X118333333Y-108561219D02*
X118000000Y-108085028D01*
X117761905Y-108561219D02*
X117761905Y-107561219D01*
X117761905Y-107561219D02*
X118142857Y-107561219D01*
X118142857Y-107561219D02*
X118238095Y-107608838D01*
X118238095Y-107608838D02*
X118285714Y-107656457D01*
X118285714Y-107656457D02*
X118333333Y-107751695D01*
X118333333Y-107751695D02*
X118333333Y-107894552D01*
X118333333Y-107894552D02*
X118285714Y-107989790D01*
X118285714Y-107989790D02*
X118238095Y-108037409D01*
X118238095Y-108037409D02*
X118142857Y-108085028D01*
X118142857Y-108085028D02*
X117761905Y-108085028D01*
X118904762Y-107989790D02*
X118809524Y-107942171D01*
X118809524Y-107942171D02*
X118761905Y-107894552D01*
X118761905Y-107894552D02*
X118714286Y-107799314D01*
X118714286Y-107799314D02*
X118714286Y-107751695D01*
X118714286Y-107751695D02*
X118761905Y-107656457D01*
X118761905Y-107656457D02*
X118809524Y-107608838D01*
X118809524Y-107608838D02*
X118904762Y-107561219D01*
X118904762Y-107561219D02*
X119095238Y-107561219D01*
X119095238Y-107561219D02*
X119190476Y-107608838D01*
X119190476Y-107608838D02*
X119238095Y-107656457D01*
X119238095Y-107656457D02*
X119285714Y-107751695D01*
X119285714Y-107751695D02*
X119285714Y-107799314D01*
X119285714Y-107799314D02*
X119238095Y-107894552D01*
X119238095Y-107894552D02*
X119190476Y-107942171D01*
X119190476Y-107942171D02*
X119095238Y-107989790D01*
X119095238Y-107989790D02*
X118904762Y-107989790D01*
X118904762Y-107989790D02*
X118809524Y-108037409D01*
X118809524Y-108037409D02*
X118761905Y-108085028D01*
X118761905Y-108085028D02*
X118714286Y-108180266D01*
X118714286Y-108180266D02*
X118714286Y-108370742D01*
X118714286Y-108370742D02*
X118761905Y-108465980D01*
X118761905Y-108465980D02*
X118809524Y-108513600D01*
X118809524Y-108513600D02*
X118904762Y-108561219D01*
X118904762Y-108561219D02*
X119095238Y-108561219D01*
X119095238Y-108561219D02*
X119190476Y-108513600D01*
X119190476Y-108513600D02*
X119238095Y-108465980D01*
X119238095Y-108465980D02*
X119285714Y-108370742D01*
X119285714Y-108370742D02*
X119285714Y-108180266D01*
X119285714Y-108180266D02*
X119238095Y-108085028D01*
X119238095Y-108085028D02*
X119190476Y-108037409D01*
X119190476Y-108037409D02*
X119095238Y-107989790D01*
X118333333Y-91454819D02*
X118000000Y-90978628D01*
X117761905Y-91454819D02*
X117761905Y-90454819D01*
X117761905Y-90454819D02*
X118142857Y-90454819D01*
X118142857Y-90454819D02*
X118238095Y-90502438D01*
X118238095Y-90502438D02*
X118285714Y-90550057D01*
X118285714Y-90550057D02*
X118333333Y-90645295D01*
X118333333Y-90645295D02*
X118333333Y-90788152D01*
X118333333Y-90788152D02*
X118285714Y-90883390D01*
X118285714Y-90883390D02*
X118238095Y-90931009D01*
X118238095Y-90931009D02*
X118142857Y-90978628D01*
X118142857Y-90978628D02*
X117761905Y-90978628D01*
X119190476Y-90788152D02*
X119190476Y-91454819D01*
X118952381Y-90407200D02*
X118714286Y-91121485D01*
X118714286Y-91121485D02*
X119333333Y-91121485D01*
X106095238Y-85204819D02*
X106095238Y-84204819D01*
X106095238Y-84204819D02*
X106428571Y-84919104D01*
X106428571Y-84919104D02*
X106761904Y-84204819D01*
X106761904Y-84204819D02*
X106761904Y-85204819D01*
X107142857Y-84204819D02*
X107761904Y-84204819D01*
X107761904Y-84204819D02*
X107428571Y-84585771D01*
X107428571Y-84585771D02*
X107571428Y-84585771D01*
X107571428Y-84585771D02*
X107666666Y-84633390D01*
X107666666Y-84633390D02*
X107714285Y-84681009D01*
X107714285Y-84681009D02*
X107761904Y-84776247D01*
X107761904Y-84776247D02*
X107761904Y-85014342D01*
X107761904Y-85014342D02*
X107714285Y-85109580D01*
X107714285Y-85109580D02*
X107666666Y-85157200D01*
X107666666Y-85157200D02*
X107571428Y-85204819D01*
X107571428Y-85204819D02*
X107285714Y-85204819D01*
X107285714Y-85204819D02*
X107190476Y-85157200D01*
X107190476Y-85157200D02*
X107142857Y-85109580D01*
X108190476Y-84823866D02*
X108952381Y-84823866D01*
X109333333Y-84204819D02*
X109952380Y-84204819D01*
X109952380Y-84204819D02*
X109619047Y-84585771D01*
X109619047Y-84585771D02*
X109761904Y-84585771D01*
X109761904Y-84585771D02*
X109857142Y-84633390D01*
X109857142Y-84633390D02*
X109904761Y-84681009D01*
X109904761Y-84681009D02*
X109952380Y-84776247D01*
X109952380Y-84776247D02*
X109952380Y-85014342D01*
X109952380Y-85014342D02*
X109904761Y-85109580D01*
X109904761Y-85109580D02*
X109857142Y-85157200D01*
X109857142Y-85157200D02*
X109761904Y-85204819D01*
X109761904Y-85204819D02*
X109476190Y-85204819D01*
X109476190Y-85204819D02*
X109380952Y-85157200D01*
X109380952Y-85157200D02*
X109333333Y-85109580D01*
X118333333Y-100008019D02*
X118000000Y-99531828D01*
X117761905Y-100008019D02*
X117761905Y-99008019D01*
X117761905Y-99008019D02*
X118142857Y-99008019D01*
X118142857Y-99008019D02*
X118238095Y-99055638D01*
X118238095Y-99055638D02*
X118285714Y-99103257D01*
X118285714Y-99103257D02*
X118333333Y-99198495D01*
X118333333Y-99198495D02*
X118333333Y-99341352D01*
X118333333Y-99341352D02*
X118285714Y-99436590D01*
X118285714Y-99436590D02*
X118238095Y-99484209D01*
X118238095Y-99484209D02*
X118142857Y-99531828D01*
X118142857Y-99531828D02*
X117761905Y-99531828D01*
X119190476Y-99008019D02*
X119000000Y-99008019D01*
X119000000Y-99008019D02*
X118904762Y-99055638D01*
X118904762Y-99055638D02*
X118857143Y-99103257D01*
X118857143Y-99103257D02*
X118761905Y-99246114D01*
X118761905Y-99246114D02*
X118714286Y-99436590D01*
X118714286Y-99436590D02*
X118714286Y-99817542D01*
X118714286Y-99817542D02*
X118761905Y-99912780D01*
X118761905Y-99912780D02*
X118809524Y-99960400D01*
X118809524Y-99960400D02*
X118904762Y-100008019D01*
X118904762Y-100008019D02*
X119095238Y-100008019D01*
X119095238Y-100008019D02*
X119190476Y-99960400D01*
X119190476Y-99960400D02*
X119238095Y-99912780D01*
X119238095Y-99912780D02*
X119285714Y-99817542D01*
X119285714Y-99817542D02*
X119285714Y-99579447D01*
X119285714Y-99579447D02*
X119238095Y-99484209D01*
X119238095Y-99484209D02*
X119190476Y-99436590D01*
X119190476Y-99436590D02*
X119095238Y-99388971D01*
X119095238Y-99388971D02*
X118904762Y-99388971D01*
X118904762Y-99388971D02*
X118809524Y-99436590D01*
X118809524Y-99436590D02*
X118761905Y-99484209D01*
X118761905Y-99484209D02*
X118714286Y-99579447D01*
X126238095Y-121204819D02*
X126238095Y-122014342D01*
X126238095Y-122014342D02*
X126285714Y-122109580D01*
X126285714Y-122109580D02*
X126333333Y-122157200D01*
X126333333Y-122157200D02*
X126428571Y-122204819D01*
X126428571Y-122204819D02*
X126619047Y-122204819D01*
X126619047Y-122204819D02*
X126714285Y-122157200D01*
X126714285Y-122157200D02*
X126761904Y-122109580D01*
X126761904Y-122109580D02*
X126809523Y-122014342D01*
X126809523Y-122014342D02*
X126809523Y-121204819D01*
X127190476Y-121204819D02*
X127809523Y-121204819D01*
X127809523Y-121204819D02*
X127476190Y-121585771D01*
X127476190Y-121585771D02*
X127619047Y-121585771D01*
X127619047Y-121585771D02*
X127714285Y-121633390D01*
X127714285Y-121633390D02*
X127761904Y-121681009D01*
X127761904Y-121681009D02*
X127809523Y-121776247D01*
X127809523Y-121776247D02*
X127809523Y-122014342D01*
X127809523Y-122014342D02*
X127761904Y-122109580D01*
X127761904Y-122109580D02*
X127714285Y-122157200D01*
X127714285Y-122157200D02*
X127619047Y-122204819D01*
X127619047Y-122204819D02*
X127333333Y-122204819D01*
X127333333Y-122204819D02*
X127238095Y-122157200D01*
X127238095Y-122157200D02*
X127190476Y-122109580D01*
D13*
%TO.C,R10*%
X129258400Y-122314900D02*
X129258400Y-125185100D01*
X129258400Y-125185100D02*
X135811600Y-125185100D01*
X135811600Y-122314900D02*
X129258400Y-122314900D01*
X135811600Y-125185100D02*
X135811600Y-122314900D01*
%TO.C,R9*%
X129258400Y-118038300D02*
X129258400Y-120908500D01*
X129258400Y-120908500D02*
X135811600Y-120908500D01*
X135811600Y-118038300D02*
X129258400Y-118038300D01*
X135811600Y-120908500D02*
X135811600Y-118038300D01*
%TO.C,R1*%
X115223400Y-76735100D02*
X115223400Y-79605300D01*
X115223400Y-79605300D02*
X121776600Y-79605300D01*
X121776600Y-76735100D02*
X115223400Y-76735100D01*
X121776600Y-79605300D02*
X121776600Y-76735100D01*
%TO.C,R7*%
X115223400Y-102394700D02*
X115223400Y-105264900D01*
X115223400Y-105264900D02*
X121776600Y-105264900D01*
X121776600Y-102394700D02*
X115223400Y-102394700D01*
X121776600Y-105264900D02*
X121776600Y-102394700D01*
D14*
%TO.C,U4*%
X118450000Y-114600000D02*
X124550000Y-114600000D01*
X118450000Y-115040000D02*
X118450000Y-114600000D01*
X118450000Y-118410000D02*
X118450000Y-117960000D01*
X124550000Y-114600000D02*
X124550000Y-115040000D01*
X124550000Y-117960000D02*
X124550000Y-118410000D01*
X124550000Y-118410000D02*
X118450000Y-118410000D01*
D15*
X118130000Y-118300000D02*
G75*
G02*
X118070000Y-118300000I-30000J0D01*
G01*
X118070000Y-118300000D02*
G75*
G02*
X118130000Y-118300000I30000J0D01*
G01*
D13*
%TO.C,R3*%
X115223400Y-85288300D02*
X115223400Y-88158500D01*
X115223400Y-88158500D02*
X121776600Y-88158500D01*
X121776600Y-85288300D02*
X115223400Y-85288300D01*
X121776600Y-88158500D02*
X121776600Y-85288300D01*
D16*
%TO.C,J2*%
X146600000Y-119650000D02*
G75*
G02*
X147420000Y-116760000I5399404J29321D01*
G01*
X147420000Y-122540000D02*
G75*
G02*
X146599998Y-119650000I4680190J2889280D01*
G01*
X149210000Y-114970000D02*
G75*
G02*
X152100000Y-114150000I2889277J-4680194D01*
G01*
X152100000Y-114150000D02*
G75*
G02*
X154989999Y-114970001I29320J-5399400D01*
G01*
X152100000Y-125150000D02*
G75*
G02*
X149210000Y-124330000I-29321J5399404D01*
G01*
X154990000Y-124330000D02*
G75*
G02*
X152100000Y-125150000I-2889277J4680194D01*
G01*
X156780000Y-116760000D02*
G75*
G02*
X157600000Y-119650000I-4680194J-2889277D01*
G01*
X157600000Y-119650000D02*
G75*
G02*
X156779999Y-122539999I-5399400J-29320D01*
G01*
D14*
%TO.C,DC1*%
X104890000Y-113190000D02*
X104890000Y-127670000D01*
X104890000Y-127670000D02*
X114040000Y-127670000D01*
X108340000Y-113190000D02*
X104890000Y-113190000D01*
X114040000Y-113190000D02*
X110460000Y-113190000D01*
X114040000Y-115520000D02*
X114040000Y-113190000D01*
X114040000Y-127670000D02*
X114040000Y-118480000D01*
X107570000Y-127670000D02*
G75*
G02*
X111210000Y-127670000I1820000J0D01*
G01*
D15*
X104930000Y-113300000D02*
G75*
G02*
X104870000Y-113300000I-30000J0D01*
G01*
X104870000Y-113300000D02*
G75*
G02*
X104930000Y-113300000I30000J0D01*
G01*
D14*
X107690000Y-114080000D02*
G75*
G02*
X107430000Y-114080000I-130000J0D01*
G01*
X107430000Y-114080000D02*
G75*
G02*
X107690000Y-114080000I130000J0D01*
G01*
D13*
%TO.C,R5*%
X115223400Y-93841500D02*
X115223400Y-96711700D01*
X115223400Y-96711700D02*
X121776600Y-96711700D01*
X121776600Y-93841500D02*
X115223400Y-93841500D01*
X121776600Y-96711700D02*
X121776600Y-93841500D01*
D17*
%TO.C,A1*%
X125900000Y-76860000D02*
X125900000Y-94900000D01*
X125900000Y-94900000D02*
X128570000Y-94900000D01*
X128570000Y-79530000D02*
X128570000Y-76860000D01*
X128570000Y-79530000D02*
X166670000Y-79530000D01*
X128570000Y-92230000D02*
X128570000Y-94900000D01*
X131110000Y-92230000D02*
X128570000Y-92230000D01*
X131110000Y-92230000D02*
X131110000Y-94900000D01*
X131110000Y-92230000D02*
X166670000Y-92230000D01*
X131110000Y-94900000D02*
X169340000Y-94900000D01*
X161460000Y-81940000D02*
X171880000Y-81940000D01*
X161460000Y-89820000D02*
X161460000Y-81940000D01*
X166670000Y-79530000D02*
X166670000Y-76860000D01*
X166670000Y-92230000D02*
X166670000Y-94900000D01*
X169340000Y-76860000D02*
X125900000Y-76860000D01*
X169340000Y-76860000D02*
X169340000Y-81940000D01*
X169340000Y-94900000D02*
X169340000Y-89820000D01*
X171880000Y-81940000D02*
X171880000Y-89820000D01*
X171880000Y-89820000D02*
X161460000Y-89820000D01*
D14*
%TO.C,U1*%
X125810000Y-95950000D02*
X137390000Y-95950000D01*
X125810000Y-113040000D02*
X125810000Y-95950000D01*
D18*
X128180000Y-108940000D02*
X128700000Y-105130000D01*
X128450000Y-103860000D02*
X128960000Y-100050000D01*
X133780000Y-109320000D02*
X129210000Y-109320000D01*
X134290000Y-104750000D02*
X129720000Y-104750000D01*
X134800000Y-99920000D02*
X130230000Y-99920000D01*
X134800000Y-109320000D02*
X135310000Y-105510000D01*
X135310000Y-104110000D02*
X135820000Y-100300000D01*
D14*
X137390000Y-113040000D02*
X125810000Y-113040000D01*
X137390000Y-113040000D02*
X138200000Y-113040000D01*
X138200000Y-95950000D02*
X137390000Y-95950000D01*
X138200000Y-113040000D02*
X138200000Y-95950000D01*
X127890000Y-99930000D02*
G75*
G02*
X126970000Y-99930000I-460000J0D01*
G01*
X126970000Y-99930000D02*
G75*
G02*
X127890000Y-99930000I460000J0D01*
G01*
D15*
X138230000Y-95950000D02*
G75*
G02*
X138170000Y-95950000I-30000J0D01*
G01*
X138170000Y-95950000D02*
G75*
G02*
X138230000Y-95950000I30000J0D01*
G01*
D16*
%TO.C,J1*%
X146500000Y-101900000D02*
G75*
G02*
X147320000Y-99010000I5399404J29321D01*
G01*
X147320000Y-104790000D02*
G75*
G02*
X146499998Y-101900000I4680190J2889280D01*
G01*
X149110000Y-97220000D02*
G75*
G02*
X152000000Y-96400000I2889277J-4680194D01*
G01*
X152000000Y-96400000D02*
G75*
G02*
X154889999Y-97220001I29320J-5399400D01*
G01*
X152000000Y-107400000D02*
G75*
G02*
X149110000Y-106580000I-29321J5399404D01*
G01*
X154890000Y-106580000D02*
G75*
G02*
X152000000Y-107400000I-2889277J4680194D01*
G01*
X156680000Y-99010000D02*
G75*
G02*
X157500000Y-101900000I-4680194J-2889277D01*
G01*
X157500000Y-101900000D02*
G75*
G02*
X156679999Y-104789999I-5399400J-29320D01*
G01*
D13*
%TO.C,R2*%
X115223400Y-81011700D02*
X115223400Y-83881900D01*
X115223400Y-83881900D02*
X121776600Y-83881900D01*
X121776600Y-81011700D02*
X115223400Y-81011700D01*
X121776600Y-83881900D02*
X121776600Y-81011700D01*
%TO.C,R8*%
X115223400Y-106671300D02*
X115223400Y-109541500D01*
X115223400Y-109541500D02*
X121776600Y-109541500D01*
X121776600Y-106671300D02*
X115223400Y-106671300D01*
X121776600Y-109541500D02*
X121776600Y-106671300D01*
%TO.C,R4*%
X115223400Y-89564900D02*
X115223400Y-92435100D01*
X115223400Y-92435100D02*
X121776600Y-92435100D01*
X121776600Y-89564900D02*
X115223400Y-89564900D01*
X121776600Y-92435100D02*
X121776600Y-89564900D01*
%TO.C,R6*%
X115223400Y-98118100D02*
X115223400Y-100988300D01*
X115223400Y-100988300D02*
X121776600Y-100988300D01*
X121776600Y-98118100D02*
X115223400Y-98118100D01*
X121776600Y-100988300D02*
X121776600Y-98118100D01*
D14*
%TO.C,U3*%
X118450000Y-119850000D02*
X124550000Y-119850000D01*
X118450000Y-120290000D02*
X118450000Y-119850000D01*
X118450000Y-123660000D02*
X118450000Y-123210000D01*
X124550000Y-119850000D02*
X124550000Y-120290000D01*
X124550000Y-123210000D02*
X124550000Y-123660000D01*
X124550000Y-123660000D02*
X118450000Y-123660000D01*
D15*
X118130000Y-123550000D02*
G75*
G02*
X118070000Y-123550000I-30000J0D01*
G01*
X118070000Y-123550000D02*
G75*
G02*
X118130000Y-123550000I30000J0D01*
G01*
%TD*%
M02*
