%TF.GenerationSoftware,KiCad,Pcbnew,9.0.6-9.0.6~ubuntu24.04.1*%
%TF.CreationDate,2026-01-09T17:07:22-08:00*%
%TF.ProjectId,MCU Project,4d435520-5072-46f6-9a65-63742e6b6963,rev?*%
%TF.SameCoordinates,Original*%
%TF.FileFunction,Soldermask,Bot*%
%TF.FilePolarity,Negative*%
%FSLAX46Y46*%
G04 Gerber Fmt 4.6, Leading zero omitted, Abs format (unit mm)*
G04 Created by KiCad (PCBNEW 9.0.6-9.0.6~ubuntu24.04.1) date 2026-01-09 17:07:22*
%MOMM*%
%LPD*%
G01*
G04 APERTURE LIST*
%ADD10C,3.200000*%
%ADD11C,2.004000*%
%ADD12C,2.604000*%
%ADD13R,1.397000X1.397000*%
%ADD14C,1.397000*%
%ADD15O,1.520000X2.500000*%
%ADD16O,2.500000X1.520000*%
%ADD17R,1.600000X1.600000*%
%ADD18O,1.600000X1.600000*%
%ADD19C,0.900000*%
G04 APERTURE END LIST*
D10*
%TO.C,M3*%
X175000000Y-97250000D03*
%TD*%
%TO.C,M3*%
X108000000Y-112000000D03*
%TD*%
%TO.C,M3*%
X108000000Y-80250000D03*
%TD*%
D11*
%TO.C,J1*%
X146250000Y-102750000D03*
D12*
X143100000Y-99600000D03*
X143100000Y-105900000D03*
X149400000Y-99600000D03*
X149400000Y-105900000D03*
%TD*%
D13*
%TO.C,R1*%
X112785000Y-78170200D03*
D14*
X124215000Y-78170200D03*
%TD*%
D13*
%TO.C,R7*%
X112785000Y-103829800D03*
D14*
X124215000Y-103829800D03*
%TD*%
D15*
%TO.C,U4*%
X161750000Y-113000000D03*
X155250000Y-113000000D03*
%TD*%
D13*
%TO.C,R3*%
X112785000Y-86723400D03*
D14*
X124215000Y-86723400D03*
%TD*%
D11*
%TO.C,J2*%
X161250000Y-103000000D03*
D12*
X158100000Y-99850000D03*
X158100000Y-106150000D03*
X164400000Y-99850000D03*
X164400000Y-106150000D03*
%TD*%
D16*
%TO.C,DC1*%
X173400000Y-104500000D03*
X173400000Y-110500000D03*
D15*
X178100000Y-107500000D03*
%TD*%
D13*
%TO.C,R5*%
X112785000Y-95276600D03*
D14*
X124215000Y-95276600D03*
%TD*%
D17*
%TO.C,A1*%
X129840000Y-93500000D03*
D18*
X132380000Y-93500000D03*
X134920000Y-93500000D03*
X137460000Y-93500000D03*
X140000000Y-93500000D03*
X142540000Y-93500000D03*
X145080000Y-93500000D03*
X147620000Y-93500000D03*
X150160000Y-93500000D03*
X152700000Y-93500000D03*
X155240000Y-93500000D03*
X157780000Y-93500000D03*
X160320000Y-93500000D03*
X162860000Y-93500000D03*
X165400000Y-93500000D03*
X165400000Y-78260000D03*
X162860000Y-78260000D03*
X160320000Y-78260000D03*
X157780000Y-78260000D03*
X155240000Y-78260000D03*
X152700000Y-78260000D03*
X150160000Y-78260000D03*
X147620000Y-78260000D03*
X145080000Y-78260000D03*
X142540000Y-78260000D03*
X140000000Y-78260000D03*
X137460000Y-78260000D03*
X134920000Y-78260000D03*
X132380000Y-78260000D03*
X129840000Y-78260000D03*
%TD*%
D19*
%TO.C,U1*%
X137080000Y-96880000D03*
X134540000Y-96880000D03*
X132000000Y-96880000D03*
X129460000Y-96880000D03*
X126920000Y-96880000D03*
X126920000Y-112120000D03*
X129460000Y-112120000D03*
X132000000Y-112120000D03*
X134540000Y-112120000D03*
X137080000Y-112120000D03*
%TD*%
D13*
%TO.C,R2*%
X112785000Y-82446800D03*
D14*
X124215000Y-82446800D03*
%TD*%
D13*
%TO.C,R8*%
X112785000Y-108106400D03*
D14*
X124215000Y-108106400D03*
%TD*%
D13*
%TO.C,R4*%
X112785000Y-91000000D03*
D14*
X124215000Y-91000000D03*
%TD*%
D13*
%TO.C,R6*%
X112785000Y-99553200D03*
D14*
X124215000Y-99553200D03*
%TD*%
D15*
%TO.C,U3*%
X146500000Y-113000000D03*
X153000000Y-113000000D03*
%TD*%
M02*
