%TF.GenerationSoftware,KiCad,Pcbnew,9.0.6-9.0.6~ubuntu24.04.1*%
%TF.CreationDate,2026-01-09T17:07:21-08:00*%
%TF.ProjectId,MCU Project,4d435520-5072-46f6-9a65-63742e6b6963,rev?*%
%TF.SameCoordinates,Original*%
%TF.FileFunction,Copper,L2,Bot*%
%TF.FilePolarity,Positive*%
%FSLAX46Y46*%
G04 Gerber Fmt 4.6, Leading zero omitted, Abs format (unit mm)*
G04 Created by KiCad (PCBNEW 9.0.6-9.0.6~ubuntu24.04.1) date 2026-01-09 17:07:21*
%MOMM*%
%LPD*%
G01*
G04 APERTURE LIST*
%TA.AperFunction,ComponentPad*%
%ADD10C,1.800000*%
%TD*%
%TA.AperFunction,ComponentPad*%
%ADD11C,2.400000*%
%TD*%
%TA.AperFunction,ComponentPad*%
%ADD12R,1.397000X1.397000*%
%TD*%
%TA.AperFunction,ComponentPad*%
%ADD13C,1.397000*%
%TD*%
%TA.AperFunction,ComponentPad*%
%ADD14O,1.520000X2.500000*%
%TD*%
%TA.AperFunction,ComponentPad*%
%ADD15O,2.500000X1.520000*%
%TD*%
%TA.AperFunction,ComponentPad*%
%ADD16R,1.600000X1.600000*%
%TD*%
%TA.AperFunction,ComponentPad*%
%ADD17O,1.600000X1.600000*%
%TD*%
%TA.AperFunction,ComponentPad*%
%ADD18C,0.900000*%
%TD*%
%TA.AperFunction,ViaPad*%
%ADD19C,0.600000*%
%TD*%
%TA.AperFunction,Conductor*%
%ADD20C,0.200000*%
%TD*%
G04 APERTURE END LIST*
D10*
%TO.P,J1,1*%
%TO.N,Net-(A1-A0)*%
X146250000Y-102750000D03*
D11*
%TO.P,J1,S1*%
%TO.N,GND*%
X143100000Y-99600000D03*
X143100000Y-105900000D03*
X149400000Y-99600000D03*
X149400000Y-105900000D03*
%TD*%
D12*
%TO.P,R1,1*%
%TO.N,Net-(U1-E)*%
X112785000Y-78170200D03*
D13*
%TO.P,R1,2*%
%TO.N,Net-(A1-D2)*%
X124215000Y-78170200D03*
%TD*%
D12*
%TO.P,R7,1*%
%TO.N,Net-(U1-F)*%
X112785000Y-103829800D03*
D13*
%TO.P,R7,2*%
%TO.N,Net-(A1-D8)*%
X124215000Y-103829800D03*
%TD*%
D14*
%TO.P,U4,1,1*%
%TO.N,Net-(A1-A3)*%
X161750000Y-113000000D03*
%TO.P,U4,2,2*%
%TO.N,GND*%
X155250000Y-113000000D03*
%TD*%
D12*
%TO.P,R3,1*%
%TO.N,Net-(U1-C)*%
X112785000Y-86723400D03*
D13*
%TO.P,R3,2*%
%TO.N,Net-(A1-D4)*%
X124215000Y-86723400D03*
%TD*%
D10*
%TO.P,J2,1*%
%TO.N,Net-(A1-A1)*%
X161250000Y-103000000D03*
D11*
%TO.P,J2,S1*%
%TO.N,GND*%
X158100000Y-99850000D03*
X158100000Y-106150000D03*
X164400000Y-99850000D03*
X164400000Y-106150000D03*
%TD*%
D15*
%TO.P,DC1,1,1*%
%TO.N,Net-(A1-VIN)*%
X173400000Y-104500000D03*
%TO.P,DC1,2,2*%
%TO.N,GND*%
X173400000Y-110500000D03*
D14*
%TO.P,DC1,3,3*%
%TO.N,unconnected-(DC1-Pad3)*%
X178100000Y-107500000D03*
%TD*%
D12*
%TO.P,R5,1*%
%TO.N,Net-(U1-B)*%
X112785000Y-95276600D03*
D13*
%TO.P,R5,2*%
%TO.N,Net-(A1-D6)*%
X124215000Y-95276600D03*
%TD*%
D16*
%TO.P,A1,1,TX1*%
%TO.N,unconnected-(A1-TX1-Pad1)*%
X129840000Y-93500000D03*
D17*
%TO.P,A1,2,RX1*%
%TO.N,unconnected-(A1-RX1-Pad2)*%
X132380000Y-93500000D03*
%TO.P,A1,3,~{RESET}*%
%TO.N,unconnected-(A1-~{RESET}-Pad3)*%
X134920000Y-93500000D03*
%TO.P,A1,4,GND*%
%TO.N,GND*%
X137460000Y-93500000D03*
%TO.P,A1,5,D2*%
%TO.N,Net-(A1-D2)*%
X140000000Y-93500000D03*
%TO.P,A1,6,D3*%
%TO.N,Net-(A1-D3)*%
X142540000Y-93500000D03*
%TO.P,A1,7,D4*%
%TO.N,Net-(A1-D4)*%
X145080000Y-93500000D03*
%TO.P,A1,8,D5*%
%TO.N,Net-(A1-D5)*%
X147620000Y-93500000D03*
%TO.P,A1,9,D6*%
%TO.N,Net-(A1-D6)*%
X150160000Y-93500000D03*
%TO.P,A1,10,D7*%
%TO.N,Net-(A1-D7)*%
X152700000Y-93500000D03*
%TO.P,A1,11,D8*%
%TO.N,Net-(A1-D8)*%
X155240000Y-93500000D03*
%TO.P,A1,12,D9*%
%TO.N,Net-(A1-D9)*%
X157780000Y-93500000D03*
%TO.P,A1,13,D10*%
%TO.N,unconnected-(A1-D10-Pad13)*%
X160320000Y-93500000D03*
%TO.P,A1,14,MOSI*%
%TO.N,unconnected-(A1-MOSI-Pad14)*%
X162860000Y-93500000D03*
%TO.P,A1,15,MISO*%
%TO.N,unconnected-(A1-MISO-Pad15)*%
X165400000Y-93500000D03*
%TO.P,A1,16,SCK*%
%TO.N,unconnected-(A1-SCK-Pad16)*%
X165400000Y-78260000D03*
%TO.P,A1,17,3V3*%
%TO.N,unconnected-(A1-3V3-Pad17)*%
X162860000Y-78260000D03*
%TO.P,A1,18,AREF*%
%TO.N,unconnected-(A1-AREF-Pad18)*%
X160320000Y-78260000D03*
%TO.P,A1,19,A0*%
%TO.N,Net-(A1-A0)*%
X157780000Y-78260000D03*
%TO.P,A1,20,A1*%
%TO.N,Net-(A1-A1)*%
X155240000Y-78260000D03*
%TO.P,A1,21,A2*%
%TO.N,Net-(A1-A2)*%
X152700000Y-78260000D03*
%TO.P,A1,22,A3*%
%TO.N,Net-(A1-A3)*%
X150160000Y-78260000D03*
%TO.P,A1,23,SDA/A4*%
%TO.N,unconnected-(A1-SDA{slash}A4-Pad23)*%
X147620000Y-78260000D03*
%TO.P,A1,24,SCL/A5*%
%TO.N,unconnected-(A1-SCL{slash}A5-Pad24)*%
X145080000Y-78260000D03*
%TO.P,A1,25,A6*%
%TO.N,unconnected-(A1-A6-Pad25)*%
X142540000Y-78260000D03*
%TO.P,A1,26,A7*%
%TO.N,unconnected-(A1-A7-Pad26)*%
X140000000Y-78260000D03*
%TO.P,A1,27,+5V*%
%TO.N,+5V*%
X137460000Y-78260000D03*
%TO.P,A1,28,~{RESET}*%
%TO.N,unconnected-(A1-~{RESET}-Pad28)*%
X134920000Y-78260000D03*
%TO.P,A1,29,GND*%
%TO.N,GND*%
X132380000Y-78260000D03*
%TO.P,A1,30,VIN*%
%TO.N,Net-(A1-VIN)*%
X129840000Y-78260000D03*
%TD*%
D18*
%TO.P,U1,1,E*%
%TO.N,Net-(U1-E)*%
X137080000Y-96880000D03*
%TO.P,U1,2,D*%
%TO.N,Net-(U1-D)*%
X134540000Y-96880000D03*
%TO.P,U1,3,COM*%
%TO.N,+5V*%
X132000000Y-96880000D03*
%TO.P,U1,4,C*%
%TO.N,Net-(U1-C)*%
X129460000Y-96880000D03*
%TO.P,U1,5,DP*%
%TO.N,Net-(U1-DP)*%
X126920000Y-96880000D03*
%TO.P,U1,6,B*%
%TO.N,Net-(U1-B)*%
X126920000Y-112120000D03*
%TO.P,U1,7,A*%
%TO.N,Net-(U1-A)*%
X129460000Y-112120000D03*
%TO.P,U1,8,COM*%
%TO.N,+5V*%
X132000000Y-112120000D03*
%TO.P,U1,9,F*%
%TO.N,Net-(U1-F)*%
X134540000Y-112120000D03*
%TO.P,U1,10,G*%
%TO.N,Net-(U1-G)*%
X137080000Y-112120000D03*
%TD*%
D12*
%TO.P,R2,1*%
%TO.N,Net-(U1-D)*%
X112785000Y-82446800D03*
D13*
%TO.P,R2,2*%
%TO.N,Net-(A1-D3)*%
X124215000Y-82446800D03*
%TD*%
D12*
%TO.P,R8,1*%
%TO.N,Net-(U1-G)*%
X112785000Y-108106400D03*
D13*
%TO.P,R8,2*%
%TO.N,Net-(A1-D9)*%
X124215000Y-108106400D03*
%TD*%
D12*
%TO.P,R4,1*%
%TO.N,Net-(U1-DP)*%
X112785000Y-91000000D03*
D13*
%TO.P,R4,2*%
%TO.N,Net-(A1-D5)*%
X124215000Y-91000000D03*
%TD*%
D12*
%TO.P,R6,1*%
%TO.N,Net-(U1-A)*%
X112785000Y-99553200D03*
D13*
%TO.P,R6,2*%
%TO.N,Net-(A1-D7)*%
X124215000Y-99553200D03*
%TD*%
D14*
%TO.P,U3,1,1*%
%TO.N,Net-(A1-A2)*%
X146500000Y-113000000D03*
%TO.P,U3,2,2*%
%TO.N,GND*%
X153000000Y-113000000D03*
%TD*%
D19*
%TO.N,Net-(A1-A1)*%
X159500000Y-80500000D03*
%TO.N,GND*%
X154250000Y-99000000D03*
X153300000Y-97131473D03*
%TO.N,Net-(A1-D7)*%
X132750000Y-103500000D03*
%TO.N,GND*%
X140980000Y-97020000D03*
%TO.N,Net-(A1-A2)*%
X154000000Y-84500000D03*
%TO.N,Net-(A1-D8)*%
X145000000Y-96003000D03*
%TO.N,+5V*%
X137500000Y-89500000D03*
%TD*%
D20*
%TO.N,Net-(A1-A1)*%
X161421000Y-82421000D02*
X159500000Y-80500000D01*
X161421000Y-99329000D02*
X161421000Y-82421000D01*
X161250000Y-99500000D02*
X161421000Y-99329000D01*
X161250000Y-103000000D02*
X161250000Y-99500000D01*
%TO.N,Net-(A1-D7)*%
X141627265Y-104750000D02*
X142426265Y-103951000D01*
X142426265Y-103951000D02*
X147171735Y-103951000D01*
X147171735Y-103951000D02*
X152700000Y-98422735D01*
X152700000Y-98422735D02*
X152700000Y-93500000D01*
%TO.N,GND*%
X143100000Y-99100000D02*
X141020000Y-97020000D01*
X141020000Y-97020000D02*
X140980000Y-97020000D01*
%TO.N,Net-(A1-A0)*%
X149000000Y-87040000D02*
X157780000Y-78260000D01*
X146250000Y-102750000D02*
X146250000Y-96500000D01*
X146250000Y-96500000D02*
X149000000Y-93750000D01*
X149000000Y-93750000D02*
X149000000Y-87040000D01*
%TO.N,GND*%
X143100000Y-99600000D02*
X143100000Y-99100000D01*
%TO.N,Net-(A1-D7)*%
X132750000Y-103500000D02*
X134000000Y-104750000D01*
X134000000Y-104750000D02*
X141627265Y-104750000D01*
%TO.N,GND*%
X149400000Y-105900000D02*
X143100000Y-105900000D01*
%TO.N,Net-(A1-A2)*%
X147750000Y-109750000D02*
X155099000Y-102401000D01*
%TO.N,Net-(A1-A3)*%
X158881000Y-96946265D02*
X158881000Y-77803950D01*
%TO.N,Net-(A1-A2)*%
X147750000Y-112500000D02*
X147750000Y-109750000D01*
%TO.N,Net-(A1-A3)*%
X161750000Y-113000000D02*
X160500000Y-113000000D01*
X160049000Y-112549000D02*
X160049000Y-98114265D01*
%TO.N,Net-(A1-A2)*%
X147250000Y-113000000D02*
X147750000Y-112500000D01*
X146500000Y-113000000D02*
X147250000Y-113000000D01*
X155099000Y-102401000D02*
X155099000Y-95881671D01*
%TO.N,Net-(A1-A3)*%
X160049000Y-98114265D02*
X158881000Y-96946265D01*
%TO.N,Net-(A1-A2)*%
X155099000Y-95881671D02*
X154000000Y-94782671D01*
X154000000Y-94782671D02*
X154000000Y-84500000D01*
%TO.N,Net-(A1-A3)*%
X160500000Y-113000000D02*
X160049000Y-112549000D01*
X151261000Y-77159000D02*
X150160000Y-78260000D01*
X158881000Y-77803950D02*
X158236050Y-77159000D01*
X158236050Y-77159000D02*
X151261000Y-77159000D01*
%TO.N,Net-(A1-D3)*%
X136359000Y-93956050D02*
X137003950Y-94601000D01*
%TO.N,+5V*%
X137500000Y-89500000D02*
X137460000Y-89460000D01*
%TO.N,Net-(A1-D3)*%
X141439000Y-94601000D02*
X142540000Y-93500000D01*
%TO.N,Net-(A1-D5)*%
X128618000Y-95403000D02*
X145717000Y-95403000D01*
%TO.N,Net-(A1-D4)*%
X143578000Y-95002000D02*
X145080000Y-93500000D01*
%TO.N,Net-(A1-D3)*%
X125761850Y-82446800D02*
X136359000Y-93043950D01*
X124215000Y-82446800D02*
X125761850Y-82446800D01*
%TO.N,Net-(A1-D2)*%
X124215000Y-78170200D02*
X139544800Y-93500000D01*
X139544800Y-93500000D02*
X140000000Y-93500000D01*
%TO.N,Net-(A1-D3)*%
X136359000Y-93043950D02*
X136359000Y-93956050D01*
%TO.N,Net-(A1-D4)*%
X127498450Y-86723400D02*
X133819000Y-93043950D01*
%TO.N,Net-(A1-D3)*%
X137003950Y-94601000D02*
X141439000Y-94601000D01*
%TO.N,Net-(A1-D4)*%
X124215000Y-86723400D02*
X127498450Y-86723400D01*
X133819000Y-93043950D02*
X133819000Y-93956050D01*
X133819000Y-93956050D02*
X134864950Y-95002000D01*
X134864950Y-95002000D02*
X143578000Y-95002000D01*
%TO.N,Net-(A1-D5)*%
X124215000Y-91000000D02*
X128618000Y-95403000D01*
X145717000Y-95403000D02*
X147620000Y-93500000D01*
%TO.N,+5V*%
X137460000Y-89460000D02*
X137460000Y-78260000D01*
%TO.N,GND*%
X153300000Y-97131473D02*
X153300000Y-98050000D01*
X153300000Y-98050000D02*
X154250000Y-99000000D01*
%TO.N,+5V*%
X132000000Y-112120000D02*
X132000000Y-96880000D01*
%TO.N,Net-(A1-D8)*%
X123215500Y-102830300D02*
X123215500Y-94862593D01*
X123800993Y-94277100D02*
X124629007Y-94277100D01*
X124629007Y-94277100D02*
X126354907Y-96003000D01*
X123215500Y-94862593D02*
X123800993Y-94277100D01*
X124215000Y-103829800D02*
X123215500Y-102830300D01*
X126354907Y-96003000D02*
X145000000Y-96003000D01*
%TD*%
M02*
