%TF.GenerationSoftware,KiCad,Pcbnew,9.0.6-9.0.6~ubuntu24.04.1*%
%TF.CreationDate,2026-01-10T16:19:20-08:00*%
%TF.ProjectId,MCU Project,4d435520-5072-46f6-9a65-63742e6b6963,rev?*%
%TF.SameCoordinates,Original*%
%TF.FileFunction,Copper,L2,Bot*%
%TF.FilePolarity,Positive*%
%FSLAX46Y46*%
G04 Gerber Fmt 4.6, Leading zero omitted, Abs format (unit mm)*
G04 Created by KiCad (PCBNEW 9.0.6-9.0.6~ubuntu24.04.1) date 2026-01-10 16:19:20*
%MOMM*%
%LPD*%
G01*
G04 APERTURE LIST*
%TA.AperFunction,ComponentPad*%
%ADD10R,1.397000X1.397000*%
%TD*%
%TA.AperFunction,ComponentPad*%
%ADD11C,1.397000*%
%TD*%
%TA.AperFunction,ComponentPad*%
%ADD12O,1.520000X2.500000*%
%TD*%
%TA.AperFunction,ComponentPad*%
%ADD13C,1.800000*%
%TD*%
%TA.AperFunction,ComponentPad*%
%ADD14C,2.400000*%
%TD*%
%TA.AperFunction,ComponentPad*%
%ADD15O,2.500000X1.520000*%
%TD*%
%TA.AperFunction,ComponentPad*%
%ADD16R,1.600000X1.600000*%
%TD*%
%TA.AperFunction,ComponentPad*%
%ADD17O,1.600000X1.600000*%
%TD*%
%TA.AperFunction,ComponentPad*%
%ADD18C,0.900000*%
%TD*%
%TA.AperFunction,ViaPad*%
%ADD19C,0.600000*%
%TD*%
%TA.AperFunction,Conductor*%
%ADD20C,0.200000*%
%TD*%
G04 APERTURE END LIST*
D10*
%TO.P,R10,1*%
%TO.N,Net-(A1-A1)*%
X126820000Y-123750000D03*
D11*
%TO.P,R10,2*%
%TO.N,Net-(J2-Pad1)*%
X138250000Y-123750000D03*
%TD*%
D10*
%TO.P,R9,1*%
%TO.N,Net-(A1-A0)*%
X126820000Y-119473400D03*
D11*
%TO.P,R9,2*%
%TO.N,Net-(J1-Pad1)*%
X138250000Y-119473400D03*
%TD*%
D10*
%TO.P,R1,1*%
%TO.N,Net-(U1-E)*%
X112785000Y-78170200D03*
D11*
%TO.P,R1,2*%
%TO.N,Net-(A1-D2)*%
X124215000Y-78170200D03*
%TD*%
D10*
%TO.P,R7,1*%
%TO.N,Net-(U1-F)*%
X112785000Y-103829800D03*
D11*
%TO.P,R7,2*%
%TO.N,Net-(A1-D8)*%
X124215000Y-103829800D03*
%TD*%
D12*
%TO.P,U4,1,1*%
%TO.N,Net-(A1-A3)*%
X118250000Y-116500000D03*
%TO.P,U4,2,2*%
%TO.N,GND*%
X124750000Y-116500000D03*
%TD*%
D10*
%TO.P,R3,1*%
%TO.N,Net-(U1-C)*%
X112785000Y-86723400D03*
D11*
%TO.P,R3,2*%
%TO.N,Net-(A1-D4)*%
X124215000Y-86723400D03*
%TD*%
D13*
%TO.P,J2,1*%
%TO.N,Net-(J2-Pad1)*%
X152100000Y-119650000D03*
D14*
%TO.P,J2,S1*%
%TO.N,GND*%
X148950000Y-116500000D03*
X148950000Y-122800000D03*
X155250000Y-116500000D03*
X155250000Y-122800000D03*
%TD*%
D15*
%TO.P,DC1,1,1*%
%TO.N,Net-(A1-VIN)*%
X109400000Y-114000000D03*
%TO.P,DC1,2,2*%
%TO.N,GND*%
X109400000Y-120000000D03*
D12*
%TO.P,DC1,3,3*%
%TO.N,unconnected-(DC1-Pad3)*%
X114100000Y-117000000D03*
%TD*%
D10*
%TO.P,R5,1*%
%TO.N,Net-(U1-B)*%
X112785000Y-95276600D03*
D11*
%TO.P,R5,2*%
%TO.N,Net-(A1-D6)*%
X124215000Y-95276600D03*
%TD*%
D16*
%TO.P,A1,1,TX1*%
%TO.N,unconnected-(A1-TX1-Pad1)*%
X129840000Y-93500000D03*
D17*
%TO.P,A1,2,RX1*%
%TO.N,unconnected-(A1-RX1-Pad2)*%
X132380000Y-93500000D03*
%TO.P,A1,3,~{RESET}*%
%TO.N,unconnected-(A1-~{RESET}-Pad3)*%
X134920000Y-93500000D03*
%TO.P,A1,4,GND*%
%TO.N,GND*%
X137460000Y-93500000D03*
%TO.P,A1,5,D2*%
%TO.N,Net-(A1-D2)*%
X140000000Y-93500000D03*
%TO.P,A1,6,D3*%
%TO.N,Net-(A1-D3)*%
X142540000Y-93500000D03*
%TO.P,A1,7,D4*%
%TO.N,Net-(A1-D4)*%
X145080000Y-93500000D03*
%TO.P,A1,8,D5*%
%TO.N,Net-(A1-D5)*%
X147620000Y-93500000D03*
%TO.P,A1,9,D6*%
%TO.N,Net-(A1-D6)*%
X150160000Y-93500000D03*
%TO.P,A1,10,D7*%
%TO.N,Net-(A1-D7)*%
X152700000Y-93500000D03*
%TO.P,A1,11,D8*%
%TO.N,Net-(A1-D8)*%
X155240000Y-93500000D03*
%TO.P,A1,12,D9*%
%TO.N,Net-(A1-D9)*%
X157780000Y-93500000D03*
%TO.P,A1,13,D10*%
%TO.N,unconnected-(A1-D10-Pad13)*%
X160320000Y-93500000D03*
%TO.P,A1,14,MOSI*%
%TO.N,unconnected-(A1-MOSI-Pad14)*%
X162860000Y-93500000D03*
%TO.P,A1,15,MISO*%
%TO.N,unconnected-(A1-MISO-Pad15)*%
X165400000Y-93500000D03*
%TO.P,A1,16,SCK*%
%TO.N,unconnected-(A1-SCK-Pad16)*%
X165400000Y-78260000D03*
%TO.P,A1,17,3V3*%
%TO.N,unconnected-(A1-3V3-Pad17)*%
X162860000Y-78260000D03*
%TO.P,A1,18,AREF*%
%TO.N,unconnected-(A1-AREF-Pad18)*%
X160320000Y-78260000D03*
%TO.P,A1,19,A0*%
%TO.N,Net-(A1-A0)*%
X157780000Y-78260000D03*
%TO.P,A1,20,A1*%
%TO.N,Net-(A1-A1)*%
X155240000Y-78260000D03*
%TO.P,A1,21,A2*%
%TO.N,Net-(A1-A2)*%
X152700000Y-78260000D03*
%TO.P,A1,22,A3*%
%TO.N,Net-(A1-A3)*%
X150160000Y-78260000D03*
%TO.P,A1,23,SDA/A4*%
%TO.N,unconnected-(A1-SDA{slash}A4-Pad23)*%
X147620000Y-78260000D03*
%TO.P,A1,24,SCL/A5*%
%TO.N,unconnected-(A1-SCL{slash}A5-Pad24)*%
X145080000Y-78260000D03*
%TO.P,A1,25,A6*%
%TO.N,unconnected-(A1-A6-Pad25)*%
X142540000Y-78260000D03*
%TO.P,A1,26,A7*%
%TO.N,unconnected-(A1-A7-Pad26)*%
X140000000Y-78260000D03*
%TO.P,A1,27,+5V*%
%TO.N,+5V*%
X137460000Y-78260000D03*
%TO.P,A1,28,~{RESET}*%
%TO.N,unconnected-(A1-~{RESET}-Pad28)*%
X134920000Y-78260000D03*
%TO.P,A1,29,GND*%
%TO.N,GND*%
X132380000Y-78260000D03*
%TO.P,A1,30,VIN*%
%TO.N,Net-(A1-VIN)*%
X129840000Y-78260000D03*
%TD*%
D18*
%TO.P,U1,1,E*%
%TO.N,Net-(U1-E)*%
X137080000Y-96880000D03*
%TO.P,U1,2,D*%
%TO.N,Net-(U1-D)*%
X134540000Y-96880000D03*
%TO.P,U1,3,COM*%
%TO.N,+5V*%
X132000000Y-96880000D03*
%TO.P,U1,4,C*%
%TO.N,Net-(U1-C)*%
X129460000Y-96880000D03*
%TO.P,U1,5,DP*%
%TO.N,Net-(U1-DP)*%
X126920000Y-96880000D03*
%TO.P,U1,6,B*%
%TO.N,Net-(U1-B)*%
X126920000Y-112120000D03*
%TO.P,U1,7,A*%
%TO.N,Net-(U1-A)*%
X129460000Y-112120000D03*
%TO.P,U1,8,COM*%
%TO.N,+5V*%
X132000000Y-112120000D03*
%TO.P,U1,9,F*%
%TO.N,Net-(U1-F)*%
X134540000Y-112120000D03*
%TO.P,U1,10,G*%
%TO.N,Net-(U1-G)*%
X137080000Y-112120000D03*
%TD*%
D13*
%TO.P,J1,1*%
%TO.N,Net-(J1-Pad1)*%
X152000000Y-101900000D03*
D14*
%TO.P,J1,S1*%
%TO.N,GND*%
X148850000Y-98750000D03*
X148850000Y-105050000D03*
X155150000Y-98750000D03*
X155150000Y-105050000D03*
%TD*%
D10*
%TO.P,R2,1*%
%TO.N,Net-(U1-D)*%
X112785000Y-82446800D03*
D11*
%TO.P,R2,2*%
%TO.N,Net-(A1-D3)*%
X124215000Y-82446800D03*
%TD*%
D10*
%TO.P,R8,1*%
%TO.N,Net-(U1-G)*%
X112785000Y-108106400D03*
D11*
%TO.P,R8,2*%
%TO.N,Net-(A1-D9)*%
X124215000Y-108106400D03*
%TD*%
D10*
%TO.P,R4,1*%
%TO.N,Net-(U1-DP)*%
X112785000Y-91000000D03*
D11*
%TO.P,R4,2*%
%TO.N,Net-(A1-D5)*%
X124215000Y-91000000D03*
%TD*%
D10*
%TO.P,R6,1*%
%TO.N,Net-(U1-A)*%
X112785000Y-99553200D03*
D11*
%TO.P,R6,2*%
%TO.N,Net-(A1-D7)*%
X124215000Y-99553200D03*
%TD*%
D12*
%TO.P,U3,1,1*%
%TO.N,Net-(A1-A2)*%
X118250000Y-121750000D03*
%TO.P,U3,2,2*%
%TO.N,GND*%
X124750000Y-121750000D03*
%TD*%
D19*
%TO.N,Net-(U1-D)*%
X134585500Y-85690700D03*
%TO.N,Net-(U1-E)*%
X128300000Y-80432500D03*
%TO.N,Net-(A1-A3)*%
X140750300Y-114861200D03*
%TO.N,Net-(A1-A0)*%
X156961500Y-118379000D03*
%TO.N,Net-(A1-A2)*%
X150625000Y-119014500D03*
%TO.N,Net-(A1-D3)*%
X142800000Y-89187500D03*
%TO.N,Net-(A1-A1)*%
X133412000Y-81043000D03*
%TO.N,Net-(A1-D2)*%
X137768800Y-80309300D03*
%TO.N,GND*%
X146902500Y-94828300D03*
%TD*%
D20*
%TO.N,Net-(J1-Pad1)*%
X152000000Y-105723400D02*
X152000000Y-101900000D01*
X138250000Y-119473400D02*
X152000000Y-105723400D01*
%TO.N,Net-(U1-B)*%
X126803100Y-112120000D02*
X126920000Y-112120000D01*
X113785200Y-99102100D02*
X126803100Y-112120000D01*
X113785200Y-97277000D02*
X113785200Y-99102100D01*
X112785000Y-96276800D02*
X113785200Y-97277000D01*
X112785000Y-95276600D02*
X112785000Y-96276800D01*
%TO.N,Net-(U1-D)*%
X133770900Y-86505300D02*
X134585500Y-85690700D01*
X133770900Y-96110900D02*
X133770900Y-86505300D01*
X134540000Y-96880000D02*
X133770900Y-96110900D01*
X134585500Y-85690700D02*
X133433500Y-85690700D01*
X133433500Y-85690700D02*
X134585500Y-85690700D01*
X134585500Y-85690700D02*
X134583900Y-85690700D01*
X134583900Y-85690700D02*
X134585500Y-85690700D01*
%TO.N,Net-(U1-E)*%
X136190000Y-95990000D02*
X137080000Y-96880000D01*
X136190000Y-84791000D02*
X136190000Y-95990000D01*
X134365100Y-82966100D02*
X136190000Y-84791000D01*
X134365100Y-81145100D02*
X134365100Y-82966100D01*
X133221000Y-80001000D02*
X134365100Y-81145100D01*
X128731500Y-80001000D02*
X133221000Y-80001000D01*
X128300000Y-80432500D02*
X128731500Y-80001000D01*
%TO.N,Net-(A1-A3)*%
X143810000Y-111801500D02*
X140750300Y-114861200D01*
X143810000Y-85711700D02*
X143810000Y-111801500D01*
X150160000Y-79361700D02*
X143810000Y-85711700D01*
X150160000Y-78260000D02*
X150160000Y-79361700D01*
%TO.N,+5V*%
X132000000Y-97679900D02*
X132000000Y-96880000D01*
X132000000Y-112120000D02*
X132000000Y-104500000D01*
X137460000Y-78260000D02*
X137460000Y-79361700D01*
X132000000Y-104500000D02*
X132000000Y-104458700D01*
X132000000Y-104458700D02*
X132000000Y-100293100D01*
X132000000Y-100293100D02*
X132000000Y-97903800D01*
X132000000Y-97903800D02*
X132000000Y-97679900D01*
X137140900Y-79680800D02*
X137460000Y-79361700D01*
X137140900Y-81492700D02*
X137140900Y-79680800D01*
X138596200Y-82948000D02*
X137140900Y-81492700D01*
X138596200Y-96443100D02*
X138596200Y-82948000D01*
X137359400Y-97679900D02*
X138596200Y-96443100D01*
X132000000Y-97679900D02*
X137359400Y-97679900D01*
%TO.N,Net-(A1-A0)*%
X158881700Y-80463400D02*
X157780000Y-79361700D01*
X158881700Y-116458800D02*
X158881700Y-80463400D01*
X156961500Y-118379000D02*
X158881700Y-116458800D01*
X156961500Y-118379000D02*
X157344500Y-118379000D01*
X157344500Y-118379000D02*
X156961500Y-118379000D01*
X157780000Y-78260000D02*
X157780000Y-79361700D01*
%TO.N,Net-(A1-A2)*%
X153589500Y-116050000D02*
X150625000Y-119014500D01*
X153589500Y-97710500D02*
X153589500Y-116050000D01*
X153809900Y-97490100D02*
X153589500Y-97710500D01*
X153809900Y-80471600D02*
X153809900Y-97490100D01*
X152700000Y-79361700D02*
X153809900Y-80471600D01*
X152700000Y-78260000D02*
X152700000Y-79361700D01*
%TO.N,Net-(A1-D3)*%
X142540000Y-89447500D02*
X142540000Y-93500000D01*
X142800000Y-89187500D02*
X142540000Y-89447500D01*
%TO.N,Net-(A1-A1)*%
X127820200Y-86634800D02*
X133412000Y-81043000D01*
X127820200Y-121749600D02*
X127820200Y-86634800D01*
X126820000Y-122749800D02*
X127820200Y-121749600D01*
X126820000Y-123750000D02*
X126820000Y-122749800D01*
%TO.N,Net-(A1-D2)*%
X140000000Y-82540500D02*
X137768800Y-80309300D01*
X140000000Y-93500000D02*
X140000000Y-82540500D01*
X137768800Y-80309300D02*
X140000000Y-80309300D01*
X140000000Y-80309300D02*
X137768800Y-80309300D01*
%TO.N,Net-(A1-VIN)*%
X109400000Y-114000000D02*
X109400000Y-112938300D01*
X126963300Y-78260000D02*
X129840000Y-78260000D01*
X122349500Y-82873800D02*
X126963300Y-78260000D01*
X122349500Y-83832100D02*
X122349500Y-82873800D01*
X110461700Y-95719900D02*
X122349500Y-83832100D01*
X110461700Y-111876600D02*
X110461700Y-95719900D01*
X109400000Y-112938300D02*
X110461700Y-111876600D01*
%TO.N,GND*%
X137460000Y-93500000D02*
X137460000Y-92398300D01*
X132380000Y-78260000D02*
X132380000Y-79361700D01*
X155150000Y-103953100D02*
X155150000Y-98750000D01*
X155150000Y-103994400D02*
X155150000Y-103953100D01*
X155150000Y-105050000D02*
X155150000Y-104053100D01*
X155150000Y-104053100D02*
X155150000Y-103994400D01*
X155250000Y-105150000D02*
X155250000Y-116500000D01*
X155150000Y-105050000D02*
X155250000Y-105150000D01*
X148950000Y-122800000D02*
X148950000Y-116500000D01*
X124750000Y-121750000D02*
X124750000Y-116500000D01*
X137460000Y-83672000D02*
X137460000Y-92398300D01*
X133149700Y-79361700D02*
X137460000Y-83672000D01*
X132380000Y-79361700D02*
X133149700Y-79361700D01*
X148850000Y-105050000D02*
X148850000Y-101900000D01*
X148850000Y-101900000D02*
X148850000Y-101858700D01*
X148850000Y-101858700D02*
X148850000Y-100309900D01*
X148850000Y-100309900D02*
X148850000Y-98958700D01*
X148850000Y-98958700D02*
X148850000Y-98917400D01*
X148850000Y-98917400D02*
X148850000Y-98750000D01*
X146902500Y-96802500D02*
X146902500Y-94828300D01*
X148850000Y-98750000D02*
X146902500Y-96802500D01*
X146902500Y-94828300D02*
X146677400Y-95053400D01*
X146677400Y-95053400D02*
X146902500Y-94828300D01*
%TD*%
M02*
