M48
; DRILL file {KiCad 9.0.6-9.0.6~ubuntu24.04.1} date 2026-01-09T17:07:18-0800
; FORMAT={-:-/ absolute / metric / decimal}
; #@! TF.CreationDate,2026-01-09T17:07:18-08:00
; #@! TF.GenerationSoftware,Kicad,Pcbnew,9.0.6-9.0.6~ubuntu24.04.1
; #@! TF.FileFunction,Plated,1,2,PTH
FMAT,2
METRIC
; #@! TA.AperFunction,Plated,PTH,ViaDrill
T1C0.300
; #@! TA.AperFunction,Plated,PTH,ComponentDrill
T2C0.600
; #@! TA.AperFunction,Plated,PTH,ComponentDrill
T3C0.800
; #@! TA.AperFunction,Plated,PTH,ComponentDrill
T4C0.889
; #@! TA.AperFunction,Plated,PTH,ComponentDrill
T5C1.000
; #@! TA.AperFunction,Plated,PTH,ComponentDrill
T6C1.000
; #@! TA.AperFunction,Plated,PTH,ComponentDrill
T7C1.200
; #@! TA.AperFunction,Plated,PTH,ComponentDrill
T8C1.600
%
G90
G05
T1
X132.75Y-103.5
X137.5Y-89.5
X140.98Y-97.02
X145.0Y-96.003
X153.3Y-97.131
X154.0Y-84.5
X154.25Y-99.0
X159.5Y-80.5
T2
X126.92Y-96.88
X126.92Y-112.12
X129.46Y-96.88
X129.46Y-112.12
X132.0Y-96.88
X132.0Y-112.12
X134.54Y-96.88
X134.54Y-112.12
X137.08Y-96.88
X137.08Y-112.12
T4
X112.785Y-78.17
X112.785Y-82.447
X112.785Y-86.723
X112.785Y-91.0
X112.785Y-95.277
X112.785Y-99.553
X112.785Y-103.83
X112.785Y-108.106
X124.215Y-78.17
X124.215Y-82.447
X124.215Y-86.723
X124.215Y-91.0
X124.215Y-95.277
X124.215Y-99.553
X124.215Y-103.83
X124.215Y-108.106
T6
X129.84Y-78.26
X129.84Y-93.5
X132.38Y-78.26
X132.38Y-93.5
X134.92Y-78.26
X134.92Y-93.5
X137.46Y-78.26
X137.46Y-93.5
X140.0Y-78.26
X140.0Y-93.5
X142.54Y-78.26
X142.54Y-93.5
X145.08Y-78.26
X145.08Y-93.5
X147.62Y-78.26
X147.62Y-93.5
X150.16Y-78.26
X150.16Y-93.5
X152.7Y-78.26
X152.7Y-93.5
X155.24Y-78.26
X155.24Y-93.5
X157.78Y-78.26
X157.78Y-93.5
X160.32Y-78.26
X160.32Y-93.5
X162.86Y-78.26
X162.86Y-93.5
X165.4Y-78.26
X165.4Y-93.5
T7
X146.25Y-102.75
X161.25Y-103.0
T8
X143.1Y-99.6
X143.1Y-105.9
X149.4Y-99.6
X149.4Y-105.9
X158.1Y-99.85
X158.1Y-106.15
X164.4Y-99.85
X164.4Y-106.15
T3
G00X146.5Y-113.4
M15
G01X146.5Y-112.6
M16
G05
G00X153.0Y-113.4
M15
G01X153.0Y-112.6
M16
G05
G00X155.25Y-112.6
M15
G01X155.25Y-113.4
M16
G05
G00X161.75Y-112.6
M15
G01X161.75Y-113.4
M16
G05
T5
G00X173.7Y-104.5
M15
G01X173.1Y-104.5
M16
G05
G00X173.7Y-110.5
M15
G01X173.1Y-110.5
M16
G05
G00X178.1Y-107.8
M15
G01X178.1Y-107.2
M16
G05
M30
