%TF.GenerationSoftware,KiCad,Pcbnew,9.0.6-9.0.6~ubuntu24.04.1*%
%TF.CreationDate,2026-01-10T16:19:20-08:00*%
%TF.ProjectId,MCU Project,4d435520-5072-46f6-9a65-63742e6b6963,rev?*%
%TF.SameCoordinates,Original*%
%TF.FileFunction,Soldermask,Bot*%
%TF.FilePolarity,Negative*%
%FSLAX46Y46*%
G04 Gerber Fmt 4.6, Leading zero omitted, Abs format (unit mm)*
G04 Created by KiCad (PCBNEW 9.0.6-9.0.6~ubuntu24.04.1) date 2026-01-10 16:19:20*
%MOMM*%
%LPD*%
G01*
G04 APERTURE LIST*
%ADD10R,1.397000X1.397000*%
%ADD11C,1.397000*%
%ADD12O,1.520000X2.500000*%
%ADD13C,3.200000*%
%ADD14C,2.004000*%
%ADD15C,2.604000*%
%ADD16O,2.500000X1.520000*%
%ADD17R,1.600000X1.600000*%
%ADD18O,1.600000X1.600000*%
%ADD19C,0.900000*%
G04 APERTURE END LIST*
D10*
%TO.C,R10*%
X126820000Y-123750000D03*
D11*
X138250000Y-123750000D03*
%TD*%
D10*
%TO.C,R9*%
X126820000Y-119473400D03*
D11*
X138250000Y-119473400D03*
%TD*%
D10*
%TO.C,R1*%
X112785000Y-78170200D03*
D11*
X124215000Y-78170200D03*
%TD*%
D10*
%TO.C,R7*%
X112785000Y-103829800D03*
D11*
X124215000Y-103829800D03*
%TD*%
D12*
%TO.C,U4*%
X118250000Y-116500000D03*
X124750000Y-116500000D03*
%TD*%
D13*
%TO.C,M3-1*%
X166000000Y-110500000D03*
%TD*%
D10*
%TO.C,R3*%
X112785000Y-86723400D03*
D11*
X124215000Y-86723400D03*
%TD*%
D14*
%TO.C,J2*%
X152100000Y-119650000D03*
D15*
X148950000Y-116500000D03*
X148950000Y-122800000D03*
X155250000Y-116500000D03*
X155250000Y-122800000D03*
%TD*%
D16*
%TO.C,DC1*%
X109400000Y-114000000D03*
X109400000Y-120000000D03*
D12*
X114100000Y-117000000D03*
%TD*%
D10*
%TO.C,R5*%
X112785000Y-95276600D03*
D11*
X124215000Y-95276600D03*
%TD*%
D13*
%TO.C,M3-2*%
X108000000Y-109000000D03*
%TD*%
D17*
%TO.C,A1*%
X129840000Y-93500000D03*
D18*
X132380000Y-93500000D03*
X134920000Y-93500000D03*
X137460000Y-93500000D03*
X140000000Y-93500000D03*
X142540000Y-93500000D03*
X145080000Y-93500000D03*
X147620000Y-93500000D03*
X150160000Y-93500000D03*
X152700000Y-93500000D03*
X155240000Y-93500000D03*
X157780000Y-93500000D03*
X160320000Y-93500000D03*
X162860000Y-93500000D03*
X165400000Y-93500000D03*
X165400000Y-78260000D03*
X162860000Y-78260000D03*
X160320000Y-78260000D03*
X157780000Y-78260000D03*
X155240000Y-78260000D03*
X152700000Y-78260000D03*
X150160000Y-78260000D03*
X147620000Y-78260000D03*
X145080000Y-78260000D03*
X142540000Y-78260000D03*
X140000000Y-78260000D03*
X137460000Y-78260000D03*
X134920000Y-78260000D03*
X132380000Y-78260000D03*
X129840000Y-78260000D03*
%TD*%
D19*
%TO.C,U1*%
X137080000Y-96880000D03*
X134540000Y-96880000D03*
X132000000Y-96880000D03*
X129460000Y-96880000D03*
X126920000Y-96880000D03*
X126920000Y-112120000D03*
X129460000Y-112120000D03*
X132000000Y-112120000D03*
X134540000Y-112120000D03*
X137080000Y-112120000D03*
%TD*%
D14*
%TO.C,J1*%
X152000000Y-101900000D03*
D15*
X148850000Y-98750000D03*
X148850000Y-105050000D03*
X155150000Y-98750000D03*
X155150000Y-105050000D03*
%TD*%
D10*
%TO.C,R2*%
X112785000Y-82446800D03*
D11*
X124215000Y-82446800D03*
%TD*%
D10*
%TO.C,R8*%
X112785000Y-108106400D03*
D11*
X124215000Y-108106400D03*
%TD*%
D10*
%TO.C,R4*%
X112785000Y-91000000D03*
D11*
X124215000Y-91000000D03*
%TD*%
D13*
%TO.C,M3-3*%
X108000000Y-80250000D03*
%TD*%
D10*
%TO.C,R6*%
X112785000Y-99553200D03*
D11*
X124215000Y-99553200D03*
%TD*%
D12*
%TO.C,U3*%
X118250000Y-121750000D03*
X124750000Y-121750000D03*
%TD*%
M02*
