%TF.GenerationSoftware,KiCad,Pcbnew,9.0.6-9.0.6~ubuntu24.04.1*%
%TF.CreationDate,2026-01-09T16:28:50-08:00*%
%TF.ProjectId,MCU Project,4d435520-5072-46f6-9a65-63742e6b6963,rev?*%
%TF.SameCoordinates,Original*%
%TF.FileFunction,Plated,1,2,PTH,Mixed*%
%TF.FilePolarity,Positive*%
%FSLAX46Y46*%
G04 Gerber Fmt 4.6, Leading zero omitted, Abs format (unit mm)*
G04 Created by KiCad (PCBNEW 9.0.6-9.0.6~ubuntu24.04.1) date 2026-01-09 16:28:50*
%MOMM*%
%LPD*%
G01*
G04 APERTURE LIST*
%TA.AperFunction,ViaDrill*%
%ADD10C,0.300000*%
%TD*%
%TA.AperFunction,ComponentDrill*%
%ADD11C,0.599999*%
%TD*%
G04 aperture for slot hole*
%TA.AperFunction,ComponentDrill*%
%ADD12C,0.799998*%
%TD*%
%TA.AperFunction,ComponentDrill*%
%ADD13C,0.889000*%
%TD*%
G04 aperture for slot hole*
%TA.AperFunction,ComponentDrill*%
%ADD14C,0.999998*%
%TD*%
%TA.AperFunction,ComponentDrill*%
%ADD15C,1.000000*%
%TD*%
%TA.AperFunction,ComponentDrill*%
%ADD16C,1.200000*%
%TD*%
%TA.AperFunction,ComponentDrill*%
%ADD17C,1.600000*%
%TD*%
G04 APERTURE END LIST*
D10*
X132750000Y-103500000D03*
X137500000Y-89500000D03*
X140980000Y-97020000D03*
X145000000Y-96003000D03*
X153300000Y-97131473D03*
X154000000Y-84500000D03*
X154250000Y-99000000D03*
X159500000Y-80500000D03*
D11*
%TO.C,U1*%
X126920000Y-96880000D03*
X126920000Y-112120000D03*
X129460000Y-96880000D03*
X129460000Y-112120000D03*
X132000000Y-96880000D03*
X132000000Y-112120000D03*
X134540000Y-96880000D03*
X134540000Y-112120000D03*
X137080000Y-96880000D03*
X137080000Y-112120000D03*
D12*
%TO.C,U3*%
X146500000Y-112600001D02*
X146500000Y-113399999D01*
X153000000Y-112600001D02*
X153000000Y-113399999D01*
%TO.C,U4*%
X155250000Y-113399999D02*
X155250000Y-112600001D01*
X161750000Y-113399999D02*
X161750000Y-112600001D01*
D13*
%TO.C,R1*%
X112785000Y-78170200D03*
%TO.C,R2*%
X112785000Y-82446800D03*
%TO.C,R3*%
X112785000Y-86723400D03*
%TO.C,R4*%
X112785000Y-91000000D03*
%TO.C,R5*%
X112785000Y-95276600D03*
%TO.C,R6*%
X112785000Y-99553200D03*
%TO.C,R7*%
X112785000Y-103829800D03*
%TO.C,R8*%
X112785000Y-108106400D03*
%TO.C,R1*%
X124215000Y-78170200D03*
%TO.C,R2*%
X124215000Y-82446800D03*
%TO.C,R3*%
X124215000Y-86723400D03*
%TO.C,R4*%
X124215000Y-91000000D03*
%TO.C,R5*%
X124215000Y-95276600D03*
%TO.C,R6*%
X124215000Y-99553200D03*
%TO.C,R7*%
X124215000Y-103829800D03*
%TO.C,R8*%
X124215000Y-108106400D03*
D14*
%TO.C,DC1*%
X172350001Y-104500000D02*
X172949999Y-104500000D01*
X172350001Y-110500000D02*
X172949999Y-110500000D01*
X177350000Y-107200001D02*
X177350000Y-107799999D01*
D15*
%TO.C,A1*%
X129840000Y-78260000D03*
X129840000Y-93500000D03*
X132380000Y-78260000D03*
X132380000Y-93500000D03*
X134920000Y-78260000D03*
X134920000Y-93500000D03*
X137460000Y-78260000D03*
X137460000Y-93500000D03*
X140000000Y-78260000D03*
X140000000Y-93500000D03*
X142540000Y-78260000D03*
X142540000Y-93500000D03*
X145080000Y-78260000D03*
X145080000Y-93500000D03*
X147620000Y-78260000D03*
X147620000Y-93500000D03*
X150160000Y-78260000D03*
X150160000Y-93500000D03*
X152700000Y-78260000D03*
X152700000Y-93500000D03*
X155240000Y-78260000D03*
X155240000Y-93500000D03*
X157780000Y-78260000D03*
X157780000Y-93500000D03*
X160320000Y-78260000D03*
X160320000Y-93500000D03*
X162860000Y-78260000D03*
X162860000Y-93500000D03*
X165400000Y-78260000D03*
X165400000Y-93500000D03*
D16*
%TO.C,J1*%
X146250000Y-102250000D03*
%TO.C,J2*%
X161250000Y-102250000D03*
D17*
%TO.C,J1*%
X143100000Y-99100000D03*
X143100000Y-105400000D03*
X149400000Y-99100000D03*
X149400000Y-105400000D03*
%TO.C,J2*%
X158100000Y-99100000D03*
X158100000Y-105400000D03*
X164400000Y-99100000D03*
X164400000Y-105400000D03*
M02*
