%TF.GenerationSoftware,KiCad,Pcbnew,9.0.6-9.0.6~ubuntu24.04.1*%
%TF.CreationDate,2026-01-10T16:19:16-08:00*%
%TF.ProjectId,MCU Project,4d435520-5072-46f6-9a65-63742e6b6963,rev?*%
%TF.SameCoordinates,Original*%
%TF.FileFunction,Plated,1,2,PTH,Mixed*%
%TF.FilePolarity,Positive*%
%FSLAX46Y46*%
G04 Gerber Fmt 4.6, Leading zero omitted, Abs format (unit mm)*
G04 Created by KiCad (PCBNEW 9.0.6-9.0.6~ubuntu24.04.1) date 2026-01-10 16:19:16*
%MOMM*%
%LPD*%
G01*
G04 APERTURE LIST*
%TA.AperFunction,ViaDrill*%
%ADD10C,0.300000*%
%TD*%
%TA.AperFunction,ComponentDrill*%
%ADD11C,0.599999*%
%TD*%
G04 aperture for slot hole*
%TA.AperFunction,ComponentDrill*%
%ADD12C,0.799998*%
%TD*%
%TA.AperFunction,ComponentDrill*%
%ADD13C,0.889000*%
%TD*%
G04 aperture for slot hole*
%TA.AperFunction,ComponentDrill*%
%ADD14C,0.999998*%
%TD*%
%TA.AperFunction,ComponentDrill*%
%ADD15C,1.000000*%
%TD*%
%TA.AperFunction,ComponentDrill*%
%ADD16C,1.200000*%
%TD*%
%TA.AperFunction,ComponentDrill*%
%ADD17C,1.600000*%
%TD*%
G04 APERTURE END LIST*
D10*
X128300000Y-80432500D03*
X133412000Y-81043000D03*
X134585500Y-85690700D03*
X137768800Y-80309300D03*
X140750300Y-114861200D03*
X142800000Y-89187500D03*
X146902500Y-94828300D03*
X150625000Y-119014500D03*
X156961500Y-118379000D03*
D11*
%TO.C,U1*%
X126920000Y-96880000D03*
X126920000Y-112120000D03*
X129460000Y-96880000D03*
X129460000Y-112120000D03*
X132000000Y-96880000D03*
X132000000Y-112120000D03*
X134540000Y-96880000D03*
X134540000Y-112120000D03*
X137080000Y-96880000D03*
X137080000Y-112120000D03*
D12*
%TO.C,U4*%
X118250000Y-116100001D02*
X118250000Y-116899999D01*
%TO.C,U3*%
X118250000Y-121350001D02*
X118250000Y-122149999D01*
%TO.C,U4*%
X124750000Y-116100001D02*
X124750000Y-116899999D01*
%TO.C,U3*%
X124750000Y-121350001D02*
X124750000Y-122149999D01*
D13*
%TO.C,R1*%
X112785000Y-78170200D03*
%TO.C,R2*%
X112785000Y-82446800D03*
%TO.C,R3*%
X112785000Y-86723400D03*
%TO.C,R4*%
X112785000Y-91000000D03*
%TO.C,R5*%
X112785000Y-95276600D03*
%TO.C,R6*%
X112785000Y-99553200D03*
%TO.C,R7*%
X112785000Y-103829800D03*
%TO.C,R8*%
X112785000Y-108106400D03*
%TO.C,R1*%
X124215000Y-78170200D03*
%TO.C,R2*%
X124215000Y-82446800D03*
%TO.C,R3*%
X124215000Y-86723400D03*
%TO.C,R4*%
X124215000Y-91000000D03*
%TO.C,R5*%
X124215000Y-95276600D03*
%TO.C,R6*%
X124215000Y-99553200D03*
%TO.C,R7*%
X124215000Y-103829800D03*
%TO.C,R8*%
X124215000Y-108106400D03*
%TO.C,R9*%
X126820000Y-119473400D03*
%TO.C,R10*%
X126820000Y-123750000D03*
%TO.C,R9*%
X138250000Y-119473400D03*
%TO.C,R10*%
X138250000Y-123750000D03*
D14*
%TO.C,DC1*%
X109100001Y-114000000D02*
X109699999Y-114000000D01*
X109100001Y-120000000D02*
X109699999Y-120000000D01*
X114100000Y-116700001D02*
X114100000Y-117299999D01*
D15*
%TO.C,A1*%
X129840000Y-78260000D03*
X129840000Y-93500000D03*
X132380000Y-78260000D03*
X132380000Y-93500000D03*
X134920000Y-78260000D03*
X134920000Y-93500000D03*
X137460000Y-78260000D03*
X137460000Y-93500000D03*
X140000000Y-78260000D03*
X140000000Y-93500000D03*
X142540000Y-78260000D03*
X142540000Y-93500000D03*
X145080000Y-78260000D03*
X145080000Y-93500000D03*
X147620000Y-78260000D03*
X147620000Y-93500000D03*
X150160000Y-78260000D03*
X150160000Y-93500000D03*
X152700000Y-78260000D03*
X152700000Y-93500000D03*
X155240000Y-78260000D03*
X155240000Y-93500000D03*
X157780000Y-78260000D03*
X157780000Y-93500000D03*
X160320000Y-78260000D03*
X160320000Y-93500000D03*
X162860000Y-78260000D03*
X162860000Y-93500000D03*
X165400000Y-78260000D03*
X165400000Y-93500000D03*
D16*
%TO.C,J1*%
X152000000Y-101900000D03*
%TO.C,J2*%
X152100000Y-119650000D03*
D17*
%TO.C,J1*%
X148850000Y-98750000D03*
X148850000Y-105050000D03*
%TO.C,J2*%
X148950000Y-116500000D03*
X148950000Y-122800000D03*
%TO.C,J1*%
X155150000Y-98750000D03*
X155150000Y-105050000D03*
%TO.C,J2*%
X155250000Y-116500000D03*
X155250000Y-122800000D03*
M02*
