%TF.GenerationSoftware,KiCad,Pcbnew,9.0.4-9.0.4-0~ubuntu24.04.1*%
%TF.CreationDate,2025-10-04T13:56:05-07:00*%
%TF.ProjectId,compact_photodiode_v2,636f6d70-6163-4745-9f70-686f746f6469,rev?*%
%TF.SameCoordinates,Original*%
%TF.FileFunction,Copper,L2,Bot*%
%TF.FilePolarity,Positive*%
%FSLAX46Y46*%
G04 Gerber Fmt 4.6, Leading zero omitted, Abs format (unit mm)*
G04 Created by KiCad (PCBNEW 9.0.4-9.0.4-0~ubuntu24.04.1) date 2025-10-04 13:56:05*
%MOMM*%
%LPD*%
G01*
G04 APERTURE LIST*
G04 Aperture macros list*
%AMRoundRect*
0 Rectangle with rounded corners*
0 $1 Rounding radius*
0 $2 $3 $4 $5 $6 $7 $8 $9 X,Y pos of 4 corners*
0 Add a 4 corners polygon primitive as box body*
4,1,4,$2,$3,$4,$5,$6,$7,$8,$9,$2,$3,0*
0 Add four circle primitives for the rounded corners*
1,1,$1+$1,$2,$3*
1,1,$1+$1,$4,$5*
1,1,$1+$1,$6,$7*
1,1,$1+$1,$8,$9*
0 Add four rect primitives between the rounded corners*
20,1,$1+$1,$2,$3,$4,$5,0*
20,1,$1+$1,$4,$5,$6,$7,0*
20,1,$1+$1,$6,$7,$8,$9,0*
20,1,$1+$1,$8,$9,$2,$3,0*%
G04 Aperture macros list end*
%TA.AperFunction,ComponentPad*%
%ADD10R,1.397000X1.397000*%
%TD*%
%TA.AperFunction,ComponentPad*%
%ADD11C,1.397000*%
%TD*%
%TA.AperFunction,ComponentPad*%
%ADD12R,2.700000X2.700000*%
%TD*%
%TA.AperFunction,ComponentPad*%
%ADD13C,2.000000*%
%TD*%
%TA.AperFunction,ComponentPad*%
%ADD14R,2.600000X2.600000*%
%TD*%
%TA.AperFunction,ComponentPad*%
%ADD15C,2.600000*%
%TD*%
%TA.AperFunction,SMDPad,CuDef*%
%ADD16RoundRect,0.237500X0.300000X0.237500X-0.300000X0.237500X-0.300000X-0.237500X0.300000X-0.237500X0*%
%TD*%
%TA.AperFunction,ComponentPad*%
%ADD17R,1.600000X1.600000*%
%TD*%
%TA.AperFunction,ComponentPad*%
%ADD18C,1.600000*%
%TD*%
%TA.AperFunction,Conductor*%
%ADD19C,0.250000*%
%TD*%
%TA.AperFunction,Conductor*%
%ADD20C,0.150000*%
%TD*%
G04 APERTURE END LIST*
D10*
%TO.P,R1,1*%
%TO.N,Net-(U1--IN)*%
X143570000Y-111500000D03*
D11*
%TO.P,R1,2*%
%TO.N,Net-(U1-OUT)*%
X155000000Y-111500000D03*
%TD*%
D12*
%TO.P,BNC,1,GND*%
%TO.N,GND*%
X150600000Y-125280000D03*
X150600000Y-120200000D03*
X145520000Y-125280000D03*
X145520000Y-120200000D03*
D13*
%TO.P,BNC,2,IN*%
%TO.N,Net-(U1-OUT)*%
X148060000Y-122740000D03*
%TD*%
D14*
%TO.P,BT1,1,+*%
%TO.N,+9V*%
X137450000Y-111800000D03*
D15*
%TO.P,BT1,2,-*%
%TO.N,GND*%
X137450000Y-117800000D03*
%TO.P,BT1,3*%
%TO.N,N/C*%
X142150000Y-114800000D03*
%TD*%
D16*
%TO.P,C1,1*%
%TO.N,Net-(U1-OUT)*%
X149225000Y-115500000D03*
%TO.P,C1,2*%
%TO.N,Net-(U1--IN)*%
X147500000Y-115500000D03*
%TD*%
D17*
%TO.P,U1,1,VS*%
%TO.N,+9V*%
X155390000Y-121600000D03*
D18*
%TO.P,U1,2,-IN*%
%TO.N,Net-(U1--IN)*%
X155390000Y-119060000D03*
%TO.P,U1,3,V-*%
%TO.N,GND*%
X155390000Y-116520000D03*
%TO.P,U1,4,FB*%
%TO.N,unconnected-(U1-FB-Pad4)*%
X155390000Y-113980000D03*
%TO.P,U1,5,OUT*%
%TO.N,Net-(U1-OUT)*%
X163010000Y-113980000D03*
%TO.P,U1,6,NC*%
%TO.N,unconnected-(U1-NC-Pad6)*%
X163010000Y-116520000D03*
%TO.P,U1,7,NC*%
%TO.N,unconnected-(U1-NC-Pad7)*%
X163010000Y-119060000D03*
%TO.P,U1,8,COM*%
%TO.N,GND*%
X163010000Y-121600000D03*
%TD*%
D19*
%TO.N,Net-(U1--IN)*%
X146734000Y-123289248D02*
X147510752Y-124066000D01*
X148609248Y-124066000D02*
X149949248Y-122726000D01*
X147510752Y-115440752D02*
X147510752Y-121414000D01*
X147510752Y-121414000D02*
X146734000Y-122190752D01*
X151724000Y-122726000D02*
X155390000Y-119060000D01*
X146734000Y-122190752D02*
X146734000Y-123289248D01*
X149949248Y-122726000D02*
X151724000Y-122726000D01*
X143570000Y-111500000D02*
X147510752Y-115440752D01*
X147510752Y-124066000D02*
X148609248Y-124066000D01*
%TO.N,Net-(U1-OUT)*%
X163010000Y-113980000D02*
X160530000Y-111500000D01*
X160530000Y-111500000D02*
X155000000Y-111500000D01*
X155000000Y-111500000D02*
X148060000Y-118440000D01*
D20*
X149225000Y-115500000D02*
X149225000Y-117275000D01*
X149225000Y-117275000D02*
X148060000Y-118440000D01*
D19*
X148060000Y-118440000D02*
X148060000Y-122740000D01*
%TD*%
M02*
